<svg width="1229" height="180" viewBox="0 0 1229 180" fill="none" xmlns="http://www.w3.org/2000/svg">
<g filter="url(#filter0_d_8_724)">
<rect x="15" y="15" width="386" height="150" fill="white"/>
</g>
<g filter="url(#filter1_d_8_724)">
<rect x="420" y="15" width="386" height="150" fill="white"/>
</g>
<g filter="url(#filter2_d_8_724)">
<rect x="828" y="15" width="386" height="150" fill="white"/>
</g>
<path d="M62.154 95.454L58.518 108H56.682L53.766 97.902L50.742 108L48.924 108.018L45.414 95.454H47.16L49.896 106.092L52.92 95.454H54.756L57.636 106.056L60.39 95.454H62.154ZM72.9465 102.69C72.9465 103.002 72.9285 103.332 72.8925 103.68H65.0085C65.0685 104.652 65.3985 105.414 65.9985 105.966C66.6105 106.506 67.3485 106.776 68.2125 106.776C68.9205 106.776 69.5085 106.614 69.9765 106.29C70.4565 105.954 70.7925 105.51 70.9845 104.958H72.7485C72.4845 105.906 71.9565 106.68 71.1645 107.28C70.3725 107.868 69.3885 108.162 68.2125 108.162C67.2765 108.162 66.4365 107.952 65.6925 107.532C64.9605 107.112 64.3845 106.518 63.9645 105.75C63.5445 104.97 63.3345 104.07 63.3345 103.05C63.3345 102.03 63.5385 101.136 63.9465 100.368C64.3545 99.6 64.9245 99.012 65.6565 98.604C66.4005 98.184 67.2525 97.974 68.2125 97.974C69.1485 97.974 69.9765 98.178 70.6965 98.586C71.4165 98.994 71.9685 99.558 72.3525 100.278C72.7485 100.986 72.9465 101.79 72.9465 102.69ZM71.2545 102.348C71.2545 101.724 71.1165 101.19 70.8405 100.746C70.5645 100.29 70.1865 99.948 69.7065 99.72C69.2385 99.48 68.7165 99.36 68.1405 99.36C67.3125 99.36 66.6045 99.624 66.0165 100.152C65.4405 100.68 65.1105 101.412 65.0265 102.348H71.2545ZM93.0475 98.136L89.9695 108H88.2775L85.9015 100.17L83.5255 108H81.8335L78.7375 98.136H80.4115L82.6795 106.416L85.1275 98.136H86.8015L89.1955 106.434L91.4275 98.136H93.0475ZM95.5191 96.534C95.2071 96.534 94.9431 96.426 94.7271 96.21C94.5111 95.994 94.4031 95.73 94.4031 95.418C94.4031 95.106 94.5111 94.842 94.7271 94.626C94.9431 94.41 95.2071 94.302 95.5191 94.302C95.8191 94.302 96.0711 94.41 96.2751 94.626C96.4911 94.842 96.5991 95.106 96.5991 95.418C96.5991 95.73 96.4911 95.994 96.2751 96.21C96.0711 96.426 95.8191 96.534 95.5191 96.534ZM96.3111 98.136V108H94.6731V98.136H96.3111ZM100.741 94.68V108H99.1028V94.68H100.741ZM105.17 94.68V108H103.532V94.68H105.17ZM114.399 99.972C114.735 99.384 115.227 98.904 115.875 98.532C116.523 98.16 117.261 97.974 118.089 97.974C118.977 97.974 119.775 98.184 120.483 98.604C121.191 99.024 121.749 99.618 122.157 100.386C122.565 101.142 122.769 102.024 122.769 103.032C122.769 104.028 122.565 104.916 122.157 105.696C121.749 106.476 121.185 107.082 120.465 107.514C119.757 107.946 118.965 108.162 118.089 108.162C117.237 108.162 116.487 107.976 115.839 107.604C115.203 107.232 114.723 106.758 114.399 106.182V108H112.761V94.68H114.399V99.972ZM121.095 103.032C121.095 102.288 120.945 101.64 120.645 101.088C120.345 100.536 119.937 100.116 119.421 99.828C118.917 99.54 118.359 99.396 117.747 99.396C117.147 99.396 116.589 99.546 116.073 99.846C115.569 100.134 115.161 100.56 114.849 101.124C114.549 101.676 114.399 102.318 114.399 103.05C114.399 103.794 114.549 104.448 114.849 105.012C115.161 105.564 115.569 105.99 116.073 106.29C116.589 106.578 117.147 106.722 117.747 106.722C118.359 106.722 118.917 106.578 119.421 106.29C119.937 105.99 120.345 105.564 120.645 105.012C120.945 104.448 121.095 103.788 121.095 103.032ZM133.925 102.69C133.925 103.002 133.907 103.332 133.871 103.68H125.987C126.047 104.652 126.377 105.414 126.977 105.966C127.589 106.506 128.327 106.776 129.191 106.776C129.899 106.776 130.487 106.614 130.955 106.29C131.435 105.954 131.771 105.51 131.963 104.958H133.727C133.463 105.906 132.935 106.68 132.143 107.28C131.351 107.868 130.367 108.162 129.191 108.162C128.255 108.162 127.415 107.952 126.671 107.532C125.939 107.112 125.363 106.518 124.943 105.75C124.523 104.97 124.313 104.07 124.313 103.05C124.313 102.03 124.517 101.136 124.925 100.368C125.333 99.6 125.903 99.012 126.635 98.604C127.379 98.184 128.231 97.974 129.191 97.974C130.127 97.974 130.955 98.178 131.675 98.586C132.395 98.994 132.947 99.558 133.331 100.278C133.727 100.986 133.925 101.79 133.925 102.69ZM132.233 102.348C132.233 101.724 132.095 101.19 131.819 100.746C131.543 100.29 131.165 99.948 130.685 99.72C130.217 99.48 129.695 99.36 129.119 99.36C128.291 99.36 127.583 99.624 126.995 100.152C126.419 100.68 126.089 101.412 126.005 102.348H132.233ZM142.884 99.486V105.3C142.884 105.78 142.986 106.122 143.19 106.326C143.394 106.518 143.748 106.614 144.252 106.614H145.458V108H143.982C143.07 108 142.386 107.79 141.93 107.37C141.474 106.95 141.246 106.26 141.246 105.3V99.486H139.968V98.136H141.246V95.652H142.884V98.136H145.458V99.486H142.884ZM152.339 97.956C153.083 97.956 153.755 98.118 154.355 98.442C154.955 98.754 155.423 99.228 155.759 99.864C156.107 100.5 156.281 101.274 156.281 102.186V108H154.661V102.42C154.661 101.436 154.415 100.686 153.923 100.17C153.431 99.642 152.759 99.378 151.907 99.378C151.043 99.378 150.353 99.648 149.837 100.188C149.333 100.728 149.081 101.514 149.081 102.546V108H147.443V94.68H149.081V99.54C149.405 99.036 149.849 98.646 150.413 98.37C150.989 98.094 151.631 97.956 152.339 97.956ZM167.956 102.69C167.956 103.002 167.938 103.332 167.902 103.68H160.018C160.078 104.652 160.408 105.414 161.008 105.966C161.62 106.506 162.358 106.776 163.222 106.776C163.93 106.776 164.518 106.614 164.986 106.29C165.466 105.954 165.802 105.51 165.994 104.958H167.758C167.494 105.906 166.966 106.68 166.174 107.28C165.382 107.868 164.398 108.162 163.222 108.162C162.286 108.162 161.446 107.952 160.702 107.532C159.97 107.112 159.394 106.518 158.974 105.75C158.554 104.97 158.344 104.07 158.344 103.05C158.344 102.03 158.548 101.136 158.956 100.368C159.364 99.6 159.934 99.012 160.666 98.604C161.41 98.184 162.262 97.974 163.222 97.974C164.158 97.974 164.986 98.178 165.706 98.586C166.426 98.994 166.978 99.558 167.362 100.278C167.758 100.986 167.956 101.79 167.956 102.69ZM166.264 102.348C166.264 101.724 166.126 101.19 165.85 100.746C165.574 100.29 165.196 99.948 164.716 99.72C164.248 99.48 163.726 99.36 163.15 99.36C162.322 99.36 161.614 99.624 161.026 100.152C160.45 100.68 160.12 101.412 160.036 102.348H166.264ZM171.756 99.738C172.044 99.174 172.452 98.736 172.98 98.424C173.52 98.112 174.174 97.956 174.942 97.956V99.648H174.51C172.674 99.648 171.756 100.644 171.756 102.636V108H170.118V98.136H171.756V99.738ZM185.833 102.69C185.833 103.002 185.815 103.332 185.779 103.68H177.895C177.955 104.652 178.285 105.414 178.885 105.966C179.497 106.506 180.235 106.776 181.099 106.776C181.807 106.776 182.395 106.614 182.863 106.29C183.343 105.954 183.679 105.51 183.871 104.958H185.635C185.371 105.906 184.843 106.68 184.051 107.28C183.259 107.868 182.275 108.162 181.099 108.162C180.163 108.162 179.323 107.952 178.579 107.532C177.847 107.112 177.271 106.518 176.851 105.75C176.431 104.97 176.221 104.07 176.221 103.05C176.221 102.03 176.425 101.136 176.833 100.368C177.241 99.6 177.811 99.012 178.543 98.604C179.287 98.184 180.139 97.974 181.099 97.974C182.035 97.974 182.863 98.178 183.583 98.586C184.303 98.994 184.855 99.558 185.239 100.278C185.635 100.986 185.833 101.79 185.833 102.69ZM184.141 102.348C184.141 101.724 184.003 101.19 183.727 100.746C183.451 100.29 183.073 99.948 182.593 99.72C182.125 99.48 181.603 99.36 181.027 99.36C180.199 99.36 179.491 99.624 178.903 100.152C178.327 100.68 177.997 101.412 177.913 102.348H184.141ZM205.934 98.136L202.856 108H201.164L198.788 100.17L196.412 108H194.72L191.624 98.136H193.298L195.566 106.416L198.014 98.136H199.688L202.082 106.434L204.314 98.136H205.934ZM212.456 97.956C213.2 97.956 213.872 98.118 214.472 98.442C215.072 98.754 215.54 99.228 215.876 99.864C216.224 100.5 216.398 101.274 216.398 102.186V108H214.778V102.42C214.778 101.436 214.532 100.686 214.04 100.17C213.548 99.642 212.876 99.378 212.024 99.378C211.16 99.378 210.47 99.648 209.954 100.188C209.45 100.728 209.198 101.514 209.198 102.546V108H207.56V94.68H209.198V99.54C209.522 99.036 209.966 98.646 210.53 98.37C211.106 98.094 211.748 97.956 212.456 97.956ZM228.074 102.69C228.074 103.002 228.056 103.332 228.02 103.68H220.136C220.196 104.652 220.526 105.414 221.126 105.966C221.738 106.506 222.476 106.776 223.34 106.776C224.048 106.776 224.636 106.614 225.104 106.29C225.584 105.954 225.92 105.51 226.112 104.958H227.876C227.612 105.906 227.084 106.68 226.292 107.28C225.5 107.868 224.516 108.162 223.34 108.162C222.404 108.162 221.564 107.952 220.82 107.532C220.088 107.112 219.512 106.518 219.092 105.75C218.672 104.97 218.462 104.07 218.462 103.05C218.462 102.03 218.666 101.136 219.074 100.368C219.482 99.6 220.052 99.012 220.784 98.604C221.528 98.184 222.38 97.974 223.34 97.974C224.276 97.974 225.104 98.178 225.824 98.586C226.544 98.994 227.096 99.558 227.48 100.278C227.876 100.986 228.074 101.79 228.074 102.69ZM226.382 102.348C226.382 101.724 226.244 101.19 225.968 100.746C225.692 100.29 225.314 99.948 224.834 99.72C224.366 99.48 223.844 99.36 223.268 99.36C222.44 99.36 221.732 99.624 221.144 100.152C220.568 100.68 220.238 101.412 220.154 102.348H226.382ZM235.042 97.956C236.242 97.956 237.214 98.322 237.958 99.054C238.702 99.774 239.074 100.818 239.074 102.186V108H237.454V102.42C237.454 101.436 237.208 100.686 236.716 100.17C236.224 99.642 235.552 99.378 234.7 99.378C233.836 99.378 233.146 99.648 232.63 100.188C232.126 100.728 231.874 101.514 231.874 102.546V108H230.236V98.136H231.874V99.54C232.198 99.036 232.636 98.646 233.188 98.37C233.752 98.094 234.37 97.956 235.042 97.956ZM255.044 98.136L249.104 112.644H247.412L249.356 107.892L245.378 98.136H247.196L250.292 106.128L253.352 98.136H255.044ZM260.993 108.162C260.069 108.162 259.229 107.952 258.473 107.532C257.729 107.112 257.141 106.518 256.709 105.75C256.289 104.97 256.079 104.07 256.079 103.05C256.079 102.042 256.295 101.154 256.727 100.386C257.171 99.606 257.771 99.012 258.527 98.604C259.283 98.184 260.129 97.974 261.065 97.974C262.001 97.974 262.847 98.184 263.603 98.604C264.359 99.012 264.953 99.6 265.385 100.368C265.829 101.136 266.051 102.03 266.051 103.05C266.051 104.07 265.823 104.97 265.367 105.75C264.923 106.518 264.317 107.112 263.549 107.532C262.781 107.952 261.929 108.162 260.993 108.162ZM260.993 106.722C261.581 106.722 262.133 106.584 262.649 106.308C263.165 106.032 263.579 105.618 263.891 105.066C264.215 104.514 264.377 103.842 264.377 103.05C264.377 102.258 264.221 101.586 263.909 101.034C263.597 100.482 263.189 100.074 262.685 99.81C262.181 99.534 261.635 99.396 261.047 99.396C260.447 99.396 259.895 99.534 259.391 99.81C258.899 100.074 258.503 100.482 258.203 101.034C257.903 101.586 257.753 102.258 257.753 103.05C257.753 103.854 257.897 104.532 258.185 105.084C258.485 105.636 258.881 106.05 259.373 106.326C259.865 106.59 260.405 106.722 260.993 106.722ZM276.952 98.136V108H275.314V106.542C275.002 107.046 274.564 107.442 274 107.73C273.448 108.006 272.836 108.144 272.164 108.144C271.396 108.144 270.706 107.988 270.094 107.676C269.482 107.352 268.996 106.872 268.636 106.236C268.288 105.6 268.114 104.826 268.114 103.914V98.136H269.734V103.698C269.734 104.67 269.98 105.42 270.472 105.948C270.964 106.464 271.636 106.722 272.488 106.722C273.364 106.722 274.054 106.452 274.558 105.912C275.062 105.372 275.314 104.586 275.314 103.554V98.136H276.952ZM296.379 97.956C297.147 97.956 297.831 98.118 298.431 98.442C299.031 98.754 299.505 99.228 299.853 99.864C300.201 100.5 300.375 101.274 300.375 102.186V108H298.755V102.42C298.755 101.436 298.509 100.686 298.017 100.17C297.537 99.642 296.883 99.378 296.055 99.378C295.203 99.378 294.525 99.654 294.021 100.206C293.517 100.746 293.265 101.532 293.265 102.564V108H291.645V102.42C291.645 101.436 291.399 100.686 290.907 100.17C290.427 99.642 289.773 99.378 288.945 99.378C288.093 99.378 287.415 99.654 286.911 100.206C286.407 100.746 286.155 101.532 286.155 102.564V108H284.517V98.136H286.155V99.558C286.479 99.042 286.911 98.646 287.451 98.37C288.003 98.094 288.609 97.956 289.269 97.956C290.097 97.956 290.829 98.142 291.465 98.514C292.101 98.886 292.575 99.432 292.887 100.152C293.163 99.456 293.619 98.916 294.255 98.532C294.891 98.148 295.599 97.956 296.379 97.956ZM307.364 108.162C306.44 108.162 305.6 107.952 304.844 107.532C304.1 107.112 303.512 106.518 303.08 105.75C302.66 104.97 302.45 104.07 302.45 103.05C302.45 102.042 302.666 101.154 303.098 100.386C303.542 99.606 304.142 99.012 304.898 98.604C305.654 98.184 306.5 97.974 307.436 97.974C308.372 97.974 309.218 98.184 309.974 98.604C310.73 99.012 311.324 99.6 311.756 100.368C312.2 101.136 312.422 102.03 312.422 103.05C312.422 104.07 312.194 104.97 311.738 105.75C311.294 106.518 310.688 107.112 309.92 107.532C309.152 107.952 308.3 108.162 307.364 108.162ZM307.364 106.722C307.952 106.722 308.504 106.584 309.02 106.308C309.536 106.032 309.95 105.618 310.262 105.066C310.586 104.514 310.748 103.842 310.748 103.05C310.748 102.258 310.592 101.586 310.28 101.034C309.968 100.482 309.56 100.074 309.056 99.81C308.552 99.534 308.006 99.396 307.418 99.396C306.818 99.396 306.266 99.534 305.762 99.81C305.27 100.074 304.874 100.482 304.574 101.034C304.274 101.586 304.124 102.258 304.124 103.05C304.124 103.854 304.268 104.532 304.556 105.084C304.856 105.636 305.252 106.05 305.744 106.326C306.236 106.59 306.776 106.722 307.364 106.722ZM318.067 108.162C317.311 108.162 316.633 108.036 316.033 107.784C315.433 107.52 314.959 107.16 314.611 106.704C314.263 106.236 314.071 105.702 314.035 105.102H315.727C315.775 105.594 316.003 105.996 316.411 106.308C316.831 106.62 317.377 106.776 318.049 106.776C318.673 106.776 319.165 106.638 319.525 106.362C319.885 106.086 320.065 105.738 320.065 105.318C320.065 104.886 319.873 104.568 319.489 104.364C319.105 104.148 318.511 103.938 317.707 103.734C316.975 103.542 316.375 103.35 315.907 103.158C315.451 102.954 315.055 102.66 314.719 102.276C314.395 101.88 314.233 101.364 314.233 100.728C314.233 100.224 314.383 99.762 314.683 99.342C314.983 98.922 315.409 98.592 315.961 98.352C316.513 98.1 317.143 97.974 317.851 97.974C318.943 97.974 319.825 98.25 320.497 98.802C321.169 99.354 321.529 100.11 321.577 101.07H319.939C319.903 100.554 319.693 100.14 319.309 99.828C318.937 99.516 318.433 99.36 317.797 99.36C317.209 99.36 316.741 99.486 316.393 99.738C316.045 99.99 315.871 100.32 315.871 100.728C315.871 101.052 315.973 101.322 316.177 101.538C316.393 101.742 316.657 101.91 316.969 102.042C317.293 102.162 317.737 102.3 318.301 102.456C319.009 102.648 319.585 102.84 320.029 103.032C320.473 103.212 320.851 103.488 321.163 103.86C321.487 104.232 321.655 104.718 321.667 105.318C321.667 105.858 321.517 106.344 321.217 106.776C320.917 107.208 320.491 107.55 319.939 107.802C319.399 108.042 318.775 108.162 318.067 108.162ZM325.978 99.486V105.3C325.978 105.78 326.08 106.122 326.284 106.326C326.488 106.518 326.842 106.614 327.346 106.614H328.552V108H327.076C326.164 108 325.48 107.79 325.024 107.37C324.568 106.95 324.34 106.26 324.34 105.3V99.486H323.062V98.136H324.34V95.652H325.978V98.136H328.552V99.486H325.978ZM51.192 124.956C52.392 124.956 53.364 125.322 54.108 126.054C54.852 126.774 55.224 127.818 55.224 129.186V135H53.604V129.42C53.604 128.436 53.358 127.686 52.866 127.17C52.374 126.642 51.702 126.378 50.85 126.378C49.986 126.378 49.296 126.648 48.78 127.188C48.276 127.728 48.024 128.514 48.024 129.546V135H46.386V125.136H48.024V126.54C48.348 126.036 48.786 125.646 49.338 125.37C49.902 125.094 50.52 124.956 51.192 124.956ZM66.8997 129.69C66.8997 130.002 66.8817 130.332 66.8457 130.68H58.9617C59.0217 131.652 59.3517 132.414 59.9517 132.966C60.5637 133.506 61.3017 133.776 62.1657 133.776C62.8737 133.776 63.4617 133.614 63.9297 133.29C64.4097 132.954 64.7457 132.51 64.9377 131.958H66.7017C66.4377 132.906 65.9097 133.68 65.1177 134.28C64.3257 134.868 63.3417 135.162 62.1657 135.162C61.2297 135.162 60.3897 134.952 59.6457 134.532C58.9137 134.112 58.3377 133.518 57.9177 132.75C57.4977 131.97 57.2877 131.07 57.2877 130.05C57.2877 129.03 57.4917 128.136 57.8997 127.368C58.3077 126.6 58.8777 126.012 59.6097 125.604C60.3537 125.184 61.2057 124.974 62.1657 124.974C63.1017 124.974 63.9297 125.178 64.6497 125.586C65.3697 125.994 65.9217 126.558 66.3057 127.278C66.7017 127.986 66.8997 128.79 66.8997 129.69ZM65.2077 129.348C65.2077 128.724 65.0697 128.19 64.7937 127.746C64.5177 127.29 64.1397 126.948 63.6597 126.72C63.1917 126.48 62.6697 126.36 62.0937 126.36C61.2657 126.36 60.5577 126.624 59.9697 127.152C59.3937 127.68 59.0637 128.412 58.9797 129.348H65.2077ZM78.0618 129.69C78.0618 130.002 78.0438 130.332 78.0078 130.68H70.1238C70.1838 131.652 70.5138 132.414 71.1138 132.966C71.7258 133.506 72.4638 133.776 73.3278 133.776C74.0358 133.776 74.6238 133.614 75.0918 133.29C75.5718 132.954 75.9078 132.51 76.0998 131.958H77.8638C77.5998 132.906 77.0718 133.68 76.2798 134.28C75.4878 134.868 74.5038 135.162 73.3278 135.162C72.3918 135.162 71.5518 134.952 70.8078 134.532C70.0758 134.112 69.4998 133.518 69.0798 132.75C68.6598 131.97 68.4498 131.07 68.4498 130.05C68.4498 129.03 68.6538 128.136 69.0618 127.368C69.4698 126.6 70.0398 126.012 70.7718 125.604C71.5158 125.184 72.3678 124.974 73.3278 124.974C74.2638 124.974 75.0918 125.178 75.8118 125.586C76.5318 125.994 77.0838 126.558 77.4678 127.278C77.8638 127.986 78.0618 128.79 78.0618 129.69ZM76.3698 129.348C76.3698 128.724 76.2318 128.19 75.9558 127.746C75.6798 127.29 75.3018 126.948 74.8218 126.72C74.3538 126.48 73.8318 126.36 73.2558 126.36C72.4278 126.36 71.7198 126.624 71.1318 127.152C70.5558 127.68 70.2258 128.412 70.1418 129.348H76.3698ZM79.6119 130.032C79.6119 129.024 79.8159 128.142 80.2239 127.386C80.6319 126.618 81.1899 126.024 81.8979 125.604C82.6179 125.184 83.4219 124.974 84.3099 124.974C85.0779 124.974 85.7919 125.154 86.4519 125.514C87.1119 125.862 87.6159 126.324 87.9639 126.9V121.68H89.6199V135H87.9639V133.146C87.6399 133.734 87.1599 134.22 86.5239 134.604C85.8879 134.976 85.1439 135.162 84.2919 135.162C83.4159 135.162 82.6179 134.946 81.8979 134.514C81.1899 134.082 80.6319 133.476 80.2239 132.696C79.8159 131.916 79.6119 131.028 79.6119 130.032ZM87.9639 130.05C87.9639 129.306 87.8139 128.658 87.5139 128.106C87.2139 127.554 86.8059 127.134 86.2899 126.846C85.7859 126.546 85.2279 126.396 84.6159 126.396C84.0039 126.396 83.4459 126.54 82.9419 126.828C82.4379 127.116 82.0359 127.536 81.7359 128.088C81.4359 128.64 81.2859 129.288 81.2859 130.032C81.2859 130.788 81.4359 131.448 81.7359 132.012C82.0359 132.564 82.4379 132.99 82.9419 133.29C83.4459 133.578 84.0039 133.722 84.6159 133.722C85.2279 133.722 85.7859 133.578 86.2899 133.29C86.8059 132.99 87.2139 132.564 87.5139 132.012C87.8139 131.448 87.9639 130.794 87.9639 130.05ZM105.935 125.136V135H104.297V133.542C103.985 134.046 103.547 134.442 102.983 134.73C102.431 135.006 101.819 135.144 101.147 135.144C100.379 135.144 99.6888 134.988 99.0768 134.676C98.4648 134.352 97.9788 133.872 97.6188 133.236C97.2708 132.6 97.0968 131.826 97.0968 130.914V125.136H98.7168V130.698C98.7168 131.67 98.9628 132.42 99.4548 132.948C99.9468 133.464 100.619 133.722 101.471 133.722C102.347 133.722 103.037 133.452 103.541 132.912C104.045 132.372 104.297 131.586 104.297 130.554V125.136H105.935ZM112.192 135.162C111.436 135.162 110.758 135.036 110.158 134.784C109.558 134.52 109.084 134.16 108.736 133.704C108.388 133.236 108.196 132.702 108.16 132.102H109.852C109.9 132.594 110.128 132.996 110.536 133.308C110.956 133.62 111.502 133.776 112.174 133.776C112.798 133.776 113.29 133.638 113.65 133.362C114.01 133.086 114.19 132.738 114.19 132.318C114.19 131.886 113.998 131.568 113.614 131.364C113.23 131.148 112.636 130.938 111.832 130.734C111.1 130.542 110.5 130.35 110.032 130.158C109.576 129.954 109.18 129.66 108.844 129.276C108.52 128.88 108.358 128.364 108.358 127.728C108.358 127.224 108.508 126.762 108.808 126.342C109.108 125.922 109.534 125.592 110.086 125.352C110.638 125.1 111.268 124.974 111.976 124.974C113.068 124.974 113.95 125.25 114.622 125.802C115.294 126.354 115.654 127.11 115.702 128.07H114.064C114.028 127.554 113.818 127.14 113.434 126.828C113.062 126.516 112.558 126.36 111.922 126.36C111.334 126.36 110.866 126.486 110.518 126.738C110.17 126.99 109.996 127.32 109.996 127.728C109.996 128.052 110.098 128.322 110.302 128.538C110.518 128.742 110.782 128.91 111.094 129.042C111.418 129.162 111.862 129.3 112.426 129.456C113.134 129.648 113.71 129.84 114.154 130.032C114.598 130.212 114.976 130.488 115.288 130.86C115.612 131.232 115.78 131.718 115.792 132.318C115.792 132.858 115.642 133.344 115.342 133.776C115.042 134.208 114.616 134.55 114.064 134.802C113.524 135.042 112.9 135.162 112.192 135.162Z" fill="#B7B7B7"/>
<path d="M474.154 95.454L470.518 108H468.682L465.766 97.902L462.742 108L460.924 108.018L457.414 95.454H459.16L461.896 106.092L464.92 95.454H466.756L469.636 106.056L472.39 95.454H474.154ZM484.947 102.69C484.947 103.002 484.929 103.332 484.893 103.68H477.009C477.069 104.652 477.399 105.414 477.999 105.966C478.611 106.506 479.349 106.776 480.213 106.776C480.921 106.776 481.509 106.614 481.977 106.29C482.457 105.954 482.793 105.51 482.985 104.958H484.749C484.485 105.906 483.957 106.68 483.165 107.28C482.373 107.868 481.389 108.162 480.213 108.162C479.277 108.162 478.437 107.952 477.693 107.532C476.961 107.112 476.385 106.518 475.965 105.75C475.545 104.97 475.335 104.07 475.335 103.05C475.335 102.03 475.539 101.136 475.947 100.368C476.355 99.6 476.925 99.012 477.657 98.604C478.401 98.184 479.253 97.974 480.213 97.974C481.149 97.974 481.977 98.178 482.697 98.586C483.417 98.994 483.969 99.558 484.353 100.278C484.749 100.986 484.947 101.79 484.947 102.69ZM483.255 102.348C483.255 101.724 483.117 101.19 482.841 100.746C482.565 100.29 482.187 99.948 481.707 99.72C481.239 99.48 480.717 99.36 480.141 99.36C479.313 99.36 478.605 99.624 478.017 100.152C477.441 100.68 477.111 101.412 477.027 102.348H483.255ZM491.295 103.032C491.295 102.024 491.499 101.142 491.907 100.386C492.315 99.618 492.873 99.024 493.581 98.604C494.301 98.184 495.099 97.974 495.975 97.974C496.839 97.974 497.589 98.16 498.225 98.532C498.861 98.904 499.335 99.372 499.647 99.936V98.136H501.303V108H499.647V106.164C499.323 106.74 498.837 107.22 498.189 107.604C497.553 107.976 496.809 108.162 495.957 108.162C495.081 108.162 494.289 107.946 493.581 107.514C492.873 107.082 492.315 106.476 491.907 105.696C491.499 104.916 491.295 104.028 491.295 103.032ZM499.647 103.05C499.647 102.306 499.497 101.658 499.197 101.106C498.897 100.554 498.489 100.134 497.973 99.846C497.469 99.546 496.911 99.396 496.299 99.396C495.687 99.396 495.129 99.54 494.625 99.828C494.121 100.116 493.719 100.536 493.419 101.088C493.119 101.64 492.969 102.288 492.969 103.032C492.969 103.788 493.119 104.448 493.419 105.012C493.719 105.564 494.121 105.99 494.625 106.29C495.129 106.578 495.687 106.722 496.299 106.722C496.911 106.722 497.469 106.578 497.973 106.29C498.489 105.99 498.897 105.564 499.197 105.012C499.497 104.448 499.647 103.794 499.647 103.05ZM505.71 99.738C505.998 99.174 506.406 98.736 506.934 98.424C507.474 98.112 508.128 97.956 508.896 97.956V99.648H508.464C506.628 99.648 505.71 100.644 505.71 102.636V108H504.072V98.136H505.71V99.738ZM519.786 102.69C519.786 103.002 519.768 103.332 519.732 103.68H511.848C511.908 104.652 512.238 105.414 512.838 105.966C513.45 106.506 514.188 106.776 515.052 106.776C515.76 106.776 516.348 106.614 516.816 106.29C517.296 105.954 517.632 105.51 517.824 104.958H519.588C519.324 105.906 518.796 106.68 518.004 107.28C517.212 107.868 516.228 108.162 515.052 108.162C514.116 108.162 513.276 107.952 512.532 107.532C511.8 107.112 511.224 106.518 510.804 105.75C510.384 104.97 510.174 104.07 510.174 103.05C510.174 102.03 510.378 101.136 510.786 100.368C511.194 99.6 511.764 99.012 512.496 98.604C513.24 98.184 514.092 97.974 515.052 97.974C515.988 97.974 516.816 98.178 517.536 98.586C518.256 98.994 518.808 99.558 519.192 100.278C519.588 100.986 519.786 101.79 519.786 102.69ZM518.094 102.348C518.094 101.724 517.956 101.19 517.68 100.746C517.404 100.29 517.026 99.948 516.546 99.72C516.078 99.48 515.556 99.36 514.98 99.36C514.152 99.36 513.444 99.624 512.856 100.152C512.28 100.68 511.95 101.412 511.866 102.348H518.094ZM526.135 103.05C526.135 102.03 526.339 101.142 526.747 100.386C527.155 99.618 527.719 99.024 528.439 98.604C529.171 98.184 530.005 97.974 530.941 97.974C532.153 97.974 533.149 98.268 533.929 98.856C534.721 99.444 535.243 100.26 535.495 101.304H533.731C533.563 100.704 533.233 100.23 532.741 99.882C532.261 99.534 531.661 99.36 530.941 99.36C530.005 99.36 529.249 99.684 528.673 100.332C528.097 100.968 527.809 101.874 527.809 103.05C527.809 104.238 528.097 105.156 528.673 105.804C529.249 106.452 530.005 106.776 530.941 106.776C531.661 106.776 532.261 106.608 532.741 106.272C533.221 105.936 533.551 105.456 533.731 104.832H535.495C535.231 105.84 534.703 106.65 533.911 107.262C533.119 107.862 532.129 108.162 530.941 108.162C530.005 108.162 529.171 107.952 528.439 107.532C527.719 107.112 527.155 106.518 526.747 105.75C526.339 104.982 526.135 104.082 526.135 103.05ZM537.069 103.032C537.069 102.024 537.273 101.142 537.681 100.386C538.089 99.618 538.647 99.024 539.355 98.604C540.075 98.184 540.873 97.974 541.749 97.974C542.613 97.974 543.363 98.16 543.999 98.532C544.635 98.904 545.109 99.372 545.421 99.936V98.136H547.077V108H545.421V106.164C545.097 106.74 544.611 107.22 543.963 107.604C543.327 107.976 542.583 108.162 541.731 108.162C540.855 108.162 540.063 107.946 539.355 107.514C538.647 107.082 538.089 106.476 537.681 105.696C537.273 104.916 537.069 104.028 537.069 103.032ZM545.421 103.05C545.421 102.306 545.271 101.658 544.971 101.106C544.671 100.554 544.263 100.134 543.747 99.846C543.243 99.546 542.685 99.396 542.073 99.396C541.461 99.396 540.903 99.54 540.399 99.828C539.895 100.116 539.493 100.536 539.193 101.088C538.893 101.64 538.743 102.288 538.743 103.032C538.743 103.788 538.893 104.448 539.193 105.012C539.493 105.564 539.895 105.99 540.399 106.29C540.903 106.578 541.461 106.722 542.073 106.722C542.685 106.722 543.243 106.578 543.747 106.29C544.263 105.99 544.671 105.564 544.971 105.012C545.271 104.448 545.421 103.794 545.421 103.05ZM551.483 99.738C551.771 99.174 552.179 98.736 552.707 98.424C553.247 98.112 553.901 97.956 554.669 97.956V99.648H554.237C552.401 99.648 551.483 100.644 551.483 102.636V108H549.845V98.136H551.483V99.738ZM565.427 97.974C566.279 97.974 567.023 98.16 567.659 98.532C568.307 98.904 568.787 99.372 569.099 99.936V98.136H570.755V108.216C570.755 109.116 570.563 109.914 570.179 110.61C569.795 111.318 569.243 111.87 568.523 112.266C567.815 112.662 566.987 112.86 566.039 112.86C564.743 112.86 563.663 112.554 562.799 111.942C561.935 111.33 561.425 110.496 561.269 109.44H562.889C563.069 110.04 563.441 110.52 564.005 110.88C564.569 111.252 565.247 111.438 566.039 111.438C566.939 111.438 567.671 111.156 568.235 110.592C568.811 110.028 569.099 109.236 569.099 108.216V106.146C568.775 106.722 568.295 107.202 567.659 107.586C567.023 107.97 566.279 108.162 565.427 108.162C564.551 108.162 563.753 107.946 563.033 107.514C562.325 107.082 561.767 106.476 561.359 105.696C560.951 104.916 560.747 104.028 560.747 103.032C560.747 102.024 560.951 101.142 561.359 100.386C561.767 99.618 562.325 99.024 563.033 98.604C563.753 98.184 564.551 97.974 565.427 97.974ZM569.099 103.05C569.099 102.306 568.949 101.658 568.649 101.106C568.349 100.554 567.941 100.134 567.425 99.846C566.921 99.546 566.363 99.396 565.751 99.396C565.139 99.396 564.581 99.54 564.077 99.828C563.573 100.116 563.171 100.536 562.871 101.088C562.571 101.64 562.421 102.288 562.421 103.032C562.421 103.788 562.571 104.448 562.871 105.012C563.171 105.564 563.573 105.99 564.077 106.29C564.581 106.578 565.139 106.722 565.751 106.722C566.363 106.722 566.921 106.578 567.425 106.29C567.941 105.99 568.349 105.564 568.649 105.012C568.949 104.448 569.099 103.794 569.099 103.05ZM582.271 98.136V108H580.633V106.542C580.321 107.046 579.883 107.442 579.319 107.73C578.767 108.006 578.155 108.144 577.483 108.144C576.715 108.144 576.025 107.988 575.413 107.676C574.801 107.352 574.315 106.872 573.955 106.236C573.607 105.6 573.433 104.826 573.433 103.914V98.136H575.053V103.698C575.053 104.67 575.299 105.42 575.791 105.948C576.283 106.464 576.955 106.722 577.807 106.722C578.683 106.722 579.373 106.452 579.877 105.912C580.381 105.372 580.633 104.586 580.633 103.554V98.136H582.271ZM593.532 98.136L587.592 112.644H585.9L587.844 107.892L583.866 98.136H585.684L588.78 106.128L591.84 98.136H593.532ZM598.671 108.162C597.915 108.162 597.237 108.036 596.637 107.784C596.037 107.52 595.563 107.16 595.215 106.704C594.867 106.236 594.675 105.702 594.639 105.102H596.331C596.379 105.594 596.607 105.996 597.015 106.308C597.435 106.62 597.981 106.776 598.653 106.776C599.277 106.776 599.769 106.638 600.129 106.362C600.489 106.086 600.669 105.738 600.669 105.318C600.669 104.886 600.477 104.568 600.093 104.364C599.709 104.148 599.115 103.938 598.311 103.734C597.579 103.542 596.979 103.35 596.511 103.158C596.055 102.954 595.659 102.66 595.323 102.276C594.999 101.88 594.837 101.364 594.837 100.728C594.837 100.224 594.987 99.762 595.287 99.342C595.587 98.922 596.013 98.592 596.565 98.352C597.117 98.1 597.747 97.974 598.455 97.974C599.547 97.974 600.429 98.25 601.101 98.802C601.773 99.354 602.133 100.11 602.181 101.07H600.543C600.507 100.554 600.297 100.14 599.913 99.828C599.541 99.516 599.037 99.36 598.401 99.36C597.813 99.36 597.345 99.486 596.997 99.738C596.649 99.99 596.475 100.32 596.475 100.728C596.475 101.052 596.577 101.322 596.781 101.538C596.997 101.742 597.261 101.91 597.573 102.042C597.897 102.162 598.341 102.3 598.905 102.456C599.613 102.648 600.189 102.84 600.633 103.032C601.077 103.212 601.455 103.488 601.767 103.86C602.091 104.232 602.259 104.718 602.271 105.318C602.271 105.858 602.121 106.344 601.821 106.776C601.521 107.208 601.095 107.55 600.543 107.802C600.003 108.042 599.379 108.162 598.671 108.162ZM608.77 103.032C608.77 102.024 608.974 101.142 609.382 100.386C609.79 99.618 610.348 99.024 611.056 98.604C611.776 98.184 612.574 97.974 613.45 97.974C614.314 97.974 615.064 98.16 615.7 98.532C616.336 98.904 616.81 99.372 617.122 99.936V98.136H618.778V108H617.122V106.164C616.798 106.74 616.312 107.22 615.664 107.604C615.028 107.976 614.284 108.162 613.432 108.162C612.556 108.162 611.764 107.946 611.056 107.514C610.348 107.082 609.79 106.476 609.382 105.696C608.974 104.916 608.77 104.028 608.77 103.032ZM617.122 103.05C617.122 102.306 616.972 101.658 616.672 101.106C616.372 100.554 615.964 100.134 615.448 99.846C614.944 99.546 614.386 99.396 613.774 99.396C613.162 99.396 612.604 99.54 612.1 99.828C611.596 100.116 611.194 100.536 610.894 101.088C610.594 101.64 610.444 102.288 610.444 103.032C610.444 103.788 610.594 104.448 610.894 105.012C611.194 105.564 611.596 105.99 612.1 106.29C612.604 106.578 613.162 106.722 613.774 106.722C614.386 106.722 614.944 106.578 615.448 106.29C615.964 105.99 616.372 105.564 616.672 105.012C616.972 104.448 617.122 103.794 617.122 103.05ZM623.544 99.486V105.3C623.544 105.78 623.646 106.122 623.85 106.326C624.054 106.518 624.408 106.614 624.912 106.614H626.118V108H624.642C623.73 108 623.046 107.79 622.59 107.37C622.134 106.95 621.906 106.26 621.906 105.3V99.486H620.628V98.136H621.906V95.652H623.544V98.136H626.118V99.486H623.544ZM637.798 97.956C638.542 97.956 639.214 98.118 639.814 98.442C640.414 98.754 640.882 99.228 641.218 99.864C641.566 100.5 641.74 101.274 641.74 102.186V108H640.12V102.42C640.12 101.436 639.874 100.686 639.382 100.17C638.89 99.642 638.218 99.378 637.366 99.378C636.502 99.378 635.812 99.648 635.296 100.188C634.792 100.728 634.54 101.514 634.54 102.546V108H632.902V94.68H634.54V99.54C634.864 99.036 635.308 98.646 635.872 98.37C636.448 98.094 637.09 97.956 637.798 97.956ZM653.415 102.69C653.415 103.002 653.397 103.332 653.361 103.68H645.477C645.537 104.652 645.867 105.414 646.467 105.966C647.079 106.506 647.817 106.776 648.681 106.776C649.389 106.776 649.977 106.614 650.445 106.29C650.925 105.954 651.261 105.51 651.453 104.958H653.217C652.953 105.906 652.425 106.68 651.633 107.28C650.841 107.868 649.857 108.162 648.681 108.162C647.745 108.162 646.905 107.952 646.161 107.532C645.429 107.112 644.853 106.518 644.433 105.75C644.013 104.97 643.803 104.07 643.803 103.05C643.803 102.03 644.007 101.136 644.415 100.368C644.823 99.6 645.393 99.012 646.125 98.604C646.869 98.184 647.721 97.974 648.681 97.974C649.617 97.974 650.445 98.178 651.165 98.586C651.885 98.994 652.437 99.558 652.821 100.278C653.217 100.986 653.415 101.79 653.415 102.69ZM651.723 102.348C651.723 101.724 651.585 101.19 651.309 100.746C651.033 100.29 650.655 99.948 650.175 99.72C649.707 99.48 649.185 99.36 648.609 99.36C647.781 99.36 647.073 99.624 646.485 100.152C645.909 100.68 645.579 101.412 645.495 102.348H651.723ZM654.965 103.032C654.965 102.024 655.169 101.142 655.577 100.386C655.985 99.618 656.543 99.024 657.251 98.604C657.971 98.184 658.769 97.974 659.645 97.974C660.509 97.974 661.259 98.16 661.895 98.532C662.531 98.904 663.005 99.372 663.317 99.936V98.136H664.973V108H663.317V106.164C662.993 106.74 662.507 107.22 661.859 107.604C661.223 107.976 660.479 108.162 659.627 108.162C658.751 108.162 657.959 107.946 657.251 107.514C656.543 107.082 655.985 106.476 655.577 105.696C655.169 104.916 654.965 104.028 654.965 103.032ZM663.317 103.05C663.317 102.306 663.167 101.658 662.867 101.106C662.567 100.554 662.159 100.134 661.643 99.846C661.139 99.546 660.581 99.396 659.969 99.396C659.357 99.396 658.799 99.54 658.295 99.828C657.791 100.116 657.389 100.536 657.089 101.088C656.789 101.64 656.639 102.288 656.639 103.032C656.639 103.788 656.789 104.448 657.089 105.012C657.389 105.564 657.791 105.99 658.295 106.29C658.799 106.578 659.357 106.722 659.969 106.722C660.581 106.722 661.139 106.578 661.643 106.29C662.159 105.99 662.567 105.564 662.867 105.012C663.167 104.448 663.317 103.794 663.317 103.05ZM669.379 99.738C669.667 99.174 670.075 98.736 670.603 98.424C671.143 98.112 671.797 97.956 672.565 97.956V99.648H672.133C670.297 99.648 669.379 100.644 669.379 102.636V108H667.741V98.136H669.379V99.738ZM676.454 99.486V105.3C676.454 105.78 676.556 106.122 676.76 106.326C676.964 106.518 677.318 106.614 677.822 106.614H679.028V108H677.552C676.64 108 675.956 107.79 675.5 107.37C675.044 106.95 674.816 106.26 674.816 105.3V99.486H673.538V98.136H674.816V95.652H676.454V98.136H679.028V99.486H676.454Z" fill="#B7B7B7"/>
<path d="M866.052 95.454V108H864.414V102.312H858.024V108H856.386V95.454H858.024V100.962H864.414V95.454H866.052ZM869.695 96.534C869.383 96.534 869.119 96.426 868.903 96.21C868.687 95.994 868.579 95.73 868.579 95.418C868.579 95.106 868.687 94.842 868.903 94.626C869.119 94.41 869.383 94.302 869.695 94.302C869.995 94.302 870.247 94.41 870.451 94.626C870.667 94.842 870.775 95.106 870.775 95.418C870.775 95.73 870.667 95.994 870.451 96.21C870.247 96.426 869.995 96.534 869.695 96.534ZM870.487 98.136V108H868.849V98.136H870.487ZM877.347 97.974C878.199 97.974 878.943 98.16 879.579 98.532C880.227 98.904 880.707 99.372 881.019 99.936V98.136H882.675V108.216C882.675 109.116 882.483 109.914 882.099 110.61C881.715 111.318 881.163 111.87 880.443 112.266C879.735 112.662 878.907 112.86 877.959 112.86C876.663 112.86 875.583 112.554 874.719 111.942C873.855 111.33 873.345 110.496 873.189 109.44H874.809C874.989 110.04 875.361 110.52 875.925 110.88C876.489 111.252 877.167 111.438 877.959 111.438C878.859 111.438 879.591 111.156 880.155 110.592C880.731 110.028 881.019 109.236 881.019 108.216V106.146C880.695 106.722 880.215 107.202 879.579 107.586C878.943 107.97 878.199 108.162 877.347 108.162C876.471 108.162 875.673 107.946 874.953 107.514C874.245 107.082 873.687 106.476 873.279 105.696C872.871 104.916 872.667 104.028 872.667 103.032C872.667 102.024 872.871 101.142 873.279 100.386C873.687 99.618 874.245 99.024 874.953 98.604C875.673 98.184 876.471 97.974 877.347 97.974ZM881.019 103.05C881.019 102.306 880.869 101.658 880.569 101.106C880.269 100.554 879.861 100.134 879.345 99.846C878.841 99.546 878.283 99.396 877.671 99.396C877.059 99.396 876.501 99.54 875.997 99.828C875.493 100.116 875.091 100.536 874.791 101.088C874.491 101.64 874.341 102.288 874.341 103.032C874.341 103.788 874.491 104.448 874.791 105.012C875.091 105.564 875.493 105.99 875.997 106.29C876.501 106.578 877.059 106.722 877.671 106.722C878.283 106.722 878.841 106.578 879.345 106.29C879.861 105.99 880.269 105.564 880.569 105.012C880.869 104.448 881.019 103.794 881.019 103.05ZM890.339 97.956C891.083 97.956 891.755 98.118 892.355 98.442C892.955 98.754 893.423 99.228 893.759 99.864C894.107 100.5 894.281 101.274 894.281 102.186V108H892.661V102.42C892.661 101.436 892.415 100.686 891.923 100.17C891.431 99.642 890.759 99.378 889.907 99.378C889.043 99.378 888.353 99.648 887.837 100.188C887.333 100.728 887.081 101.514 887.081 102.546V108H885.443V94.68H887.081V99.54C887.405 99.036 887.849 98.646 888.413 98.37C888.989 98.094 889.631 97.956 890.339 97.956ZM901.143 103.032C901.143 102.024 901.347 101.142 901.755 100.386C902.163 99.618 902.721 99.024 903.429 98.604C904.149 98.184 904.953 97.974 905.841 97.974C906.693 97.974 907.437 98.166 908.073 98.55C908.721 98.922 909.195 99.384 909.495 99.936V98.136H911.151V112.68H909.495V106.182C909.183 106.734 908.703 107.202 908.055 107.586C907.407 107.97 906.651 108.162 905.787 108.162C904.923 108.162 904.137 107.946 903.429 107.514C902.721 107.082 902.163 106.476 901.755 105.696C901.347 104.916 901.143 104.028 901.143 103.032ZM909.495 103.05C909.495 102.306 909.345 101.658 909.045 101.106C908.745 100.554 908.337 100.134 907.821 99.846C907.317 99.546 906.759 99.396 906.147 99.396C905.535 99.396 904.977 99.54 904.473 99.828C903.969 100.116 903.567 100.536 903.267 101.088C902.967 101.64 902.817 102.288 902.817 103.032C902.817 103.788 902.967 104.448 903.267 105.012C903.567 105.564 903.969 105.99 904.473 106.29C904.977 106.578 905.535 106.722 906.147 106.722C906.759 106.722 907.317 106.578 907.821 106.29C908.337 105.99 908.745 105.564 909.045 105.012C909.345 104.448 909.495 103.794 909.495 103.05ZM922.667 98.136V108H921.029V106.542C920.717 107.046 920.279 107.442 919.715 107.73C919.163 108.006 918.551 108.144 917.879 108.144C917.111 108.144 916.421 107.988 915.809 107.676C915.197 107.352 914.711 106.872 914.351 106.236C914.003 105.6 913.829 104.826 913.829 103.914V98.136H915.449V103.698C915.449 104.67 915.695 105.42 916.187 105.948C916.679 106.464 917.351 106.722 918.203 106.722C919.079 106.722 919.769 106.452 920.273 105.912C920.777 105.372 921.029 104.586 921.029 103.554V98.136H922.667ZM924.821 103.032C924.821 102.024 925.025 101.142 925.433 100.386C925.841 99.618 926.399 99.024 927.107 98.604C927.827 98.184 928.625 97.974 929.501 97.974C930.365 97.974 931.115 98.16 931.751 98.532C932.387 98.904 932.861 99.372 933.173 99.936V98.136H934.829V108H933.173V106.164C932.849 106.74 932.363 107.22 931.715 107.604C931.079 107.976 930.335 108.162 929.483 108.162C928.607 108.162 927.815 107.946 927.107 107.514C926.399 107.082 925.841 106.476 925.433 105.696C925.025 104.916 924.821 104.028 924.821 103.032ZM933.173 103.05C933.173 102.306 933.023 101.658 932.723 101.106C932.423 100.554 932.015 100.134 931.499 99.846C930.995 99.546 930.437 99.396 929.825 99.396C929.213 99.396 928.655 99.54 928.151 99.828C927.647 100.116 927.245 100.536 926.945 101.088C926.645 101.64 926.495 102.288 926.495 103.032C926.495 103.788 926.645 104.448 926.945 105.012C927.245 105.564 927.647 105.99 928.151 106.29C928.655 106.578 929.213 106.722 929.825 106.722C930.437 106.722 930.995 106.578 931.499 106.29C932.015 105.99 932.423 105.564 932.723 105.012C933.023 104.448 933.173 103.794 933.173 103.05ZM939.235 94.68V108H937.597V94.68H939.235ZM942.873 96.534C942.561 96.534 942.297 96.426 942.081 96.21C941.865 95.994 941.757 95.73 941.757 95.418C941.757 95.106 941.865 94.842 942.081 94.626C942.297 94.41 942.561 94.302 942.873 94.302C943.173 94.302 943.425 94.41 943.629 94.626C943.845 94.842 943.953 95.106 943.953 95.418C943.953 95.73 943.845 95.994 943.629 96.21C943.425 96.426 943.173 96.534 942.873 96.534ZM943.665 98.136V108H942.027V98.136H943.665ZM948.454 99.486V105.3C948.454 105.78 948.556 106.122 948.76 106.326C948.964 106.518 949.318 106.614 949.822 106.614H951.028V108H949.552C948.64 108 947.956 107.79 947.5 107.37C947.044 106.95 946.816 106.26 946.816 105.3V99.486H945.538V98.136H946.816V95.652H948.454V98.136H951.028V99.486H948.454ZM961.509 98.136L955.569 112.644H953.877L955.821 107.892L951.843 98.136H953.661L956.757 106.128L959.817 98.136H961.509ZM964.848 105.732L962.832 110.574H961.734L963.048 105.732H964.848ZM973.161 94.68V108H971.523V94.68H973.161ZM980.254 108.162C979.33 108.162 978.49 107.952 977.734 107.532C976.99 107.112 976.402 106.518 975.97 105.75C975.55 104.97 975.34 104.07 975.34 103.05C975.34 102.042 975.556 101.154 975.988 100.386C976.432 99.606 977.032 99.012 977.788 98.604C978.544 98.184 979.39 97.974 980.326 97.974C981.262 97.974 982.108 98.184 982.864 98.604C983.62 99.012 984.214 99.6 984.646 100.368C985.09 101.136 985.312 102.03 985.312 103.05C985.312 104.07 985.084 104.97 984.628 105.75C984.184 106.518 983.578 107.112 982.81 107.532C982.042 107.952 981.19 108.162 980.254 108.162ZM980.254 106.722C980.842 106.722 981.394 106.584 981.91 106.308C982.426 106.032 982.84 105.618 983.152 105.066C983.476 104.514 983.638 103.842 983.638 103.05C983.638 102.258 983.482 101.586 983.17 101.034C982.858 100.482 982.45 100.074 981.946 99.81C981.442 99.534 980.896 99.396 980.308 99.396C979.708 99.396 979.156 99.534 978.652 99.81C978.16 100.074 977.764 100.482 977.464 101.034C977.164 101.586 977.014 102.258 977.014 103.05C977.014 103.854 977.158 104.532 977.446 105.084C977.746 105.636 978.142 106.05 978.634 106.326C979.126 106.59 979.666 106.722 980.254 106.722ZM1000.61 98.136L997.528 108H995.836L993.46 100.17L991.084 108H989.392L986.296 98.136H987.97L990.238 106.416L992.686 98.136H994.36L996.754 106.434L998.986 98.136H1000.61ZM1006.42 103.05C1006.42 102.03 1006.62 101.142 1007.03 100.386C1007.44 99.618 1008 99.024 1008.72 98.604C1009.45 98.184 1010.29 97.974 1011.22 97.974C1012.44 97.974 1013.43 98.268 1014.21 98.856C1015 99.444 1015.53 100.26 1015.78 101.304H1014.01C1013.85 100.704 1013.52 100.23 1013.02 99.882C1012.54 99.534 1011.94 99.36 1011.22 99.36C1010.29 99.36 1009.53 99.684 1008.96 100.332C1008.38 100.968 1008.09 101.874 1008.09 103.05C1008.09 104.238 1008.38 105.156 1008.96 105.804C1009.53 106.452 1010.29 106.776 1011.22 106.776C1011.94 106.776 1012.54 106.608 1013.02 106.272C1013.5 105.936 1013.83 105.456 1014.01 104.832H1015.78C1015.51 105.84 1014.99 106.65 1014.19 107.262C1013.4 107.862 1012.41 108.162 1011.22 108.162C1010.29 108.162 1009.45 107.952 1008.72 107.532C1008 107.112 1007.44 106.518 1007.03 105.75C1006.62 104.982 1006.42 104.082 1006.42 103.05ZM1022.27 108.162C1021.34 108.162 1020.5 107.952 1019.75 107.532C1019 107.112 1018.41 106.518 1017.98 105.75C1017.56 104.97 1017.35 104.07 1017.35 103.05C1017.35 102.042 1017.57 101.154 1018 100.386C1018.44 99.606 1019.04 99.012 1019.8 98.604C1020.56 98.184 1021.4 97.974 1022.34 97.974C1023.27 97.974 1024.12 98.184 1024.88 98.604C1025.63 99.012 1026.23 99.6 1026.66 100.368C1027.1 101.136 1027.32 102.03 1027.32 103.05C1027.32 104.07 1027.1 104.97 1026.64 105.75C1026.2 106.518 1025.59 107.112 1024.82 107.532C1024.05 107.952 1023.2 108.162 1022.27 108.162ZM1022.27 106.722C1022.85 106.722 1023.41 106.584 1023.92 106.308C1024.44 106.032 1024.85 105.618 1025.16 105.066C1025.49 104.514 1025.65 103.842 1025.65 103.05C1025.65 102.258 1025.49 101.586 1025.18 101.034C1024.87 100.482 1024.46 100.074 1023.96 99.81C1023.45 99.534 1022.91 99.396 1022.32 99.396C1021.72 99.396 1021.17 99.534 1020.66 99.81C1020.17 100.074 1019.78 100.482 1019.48 101.034C1019.18 101.586 1019.03 102.258 1019.03 103.05C1019.03 103.854 1019.17 104.532 1019.46 105.084C1019.76 105.636 1020.15 106.05 1020.65 106.326C1021.14 106.59 1021.68 106.722 1022.27 106.722ZM1032.97 108.162C1032.21 108.162 1031.54 108.036 1030.94 107.784C1030.34 107.52 1029.86 107.16 1029.51 106.704C1029.17 106.236 1028.97 105.702 1028.94 105.102H1030.63C1030.68 105.594 1030.91 105.996 1031.31 106.308C1031.73 106.62 1032.28 106.776 1032.95 106.776C1033.58 106.776 1034.07 106.638 1034.43 106.362C1034.79 106.086 1034.97 105.738 1034.97 105.318C1034.97 104.886 1034.78 104.568 1034.39 104.364C1034.01 104.148 1033.41 103.938 1032.61 103.734C1031.88 103.542 1031.28 103.35 1030.81 103.158C1030.35 102.954 1029.96 102.66 1029.62 102.276C1029.3 101.88 1029.14 101.364 1029.14 100.728C1029.14 100.224 1029.29 99.762 1029.59 99.342C1029.89 98.922 1030.31 98.592 1030.86 98.352C1031.42 98.1 1032.05 97.974 1032.75 97.974C1033.85 97.974 1034.73 98.25 1035.4 98.802C1036.07 99.354 1036.43 100.11 1036.48 101.07H1034.84C1034.81 100.554 1034.6 100.14 1034.21 99.828C1033.84 99.516 1033.34 99.36 1032.7 99.36C1032.11 99.36 1031.64 99.486 1031.3 99.738C1030.95 99.99 1030.77 100.32 1030.77 100.728C1030.77 101.052 1030.88 101.322 1031.08 101.538C1031.3 101.742 1031.56 101.91 1031.87 102.042C1032.2 102.162 1032.64 102.3 1033.2 102.456C1033.91 102.648 1034.49 102.84 1034.93 103.032C1035.38 103.212 1035.75 103.488 1036.07 103.86C1036.39 104.232 1036.56 104.718 1036.57 105.318C1036.57 105.858 1036.42 106.344 1036.12 106.776C1035.82 107.208 1035.39 107.55 1034.84 107.802C1034.3 108.042 1033.68 108.162 1032.97 108.162ZM1040.88 99.486V105.3C1040.88 105.78 1040.98 106.122 1041.19 106.326C1041.39 106.518 1041.74 106.614 1042.25 106.614H1043.45V108H1041.98C1041.07 108 1040.38 107.79 1039.93 107.37C1039.47 106.95 1039.24 106.26 1039.24 105.3V99.486H1037.96V98.136H1039.24V95.652H1040.88V98.136H1043.45V99.486H1040.88ZM1049.63 103.05C1049.63 102.03 1049.83 101.142 1050.24 100.386C1050.65 99.618 1051.21 99.024 1051.93 98.604C1052.66 98.184 1053.5 97.974 1054.43 97.974C1055.64 97.974 1056.64 98.268 1057.42 98.856C1058.21 99.444 1058.73 100.26 1058.99 101.304H1057.22C1057.05 100.704 1056.72 100.23 1056.23 99.882C1055.75 99.534 1055.15 99.36 1054.43 99.36C1053.5 99.36 1052.74 99.684 1052.16 100.332C1051.59 100.968 1051.3 101.874 1051.3 103.05C1051.3 104.238 1051.59 105.156 1052.16 105.804C1052.74 106.452 1053.5 106.776 1054.43 106.776C1055.15 106.776 1055.75 106.608 1056.23 106.272C1056.71 105.936 1057.04 105.456 1057.22 104.832H1058.99C1058.72 105.84 1058.19 106.65 1057.4 107.262C1056.61 107.862 1055.62 108.162 1054.43 108.162C1053.5 108.162 1052.66 107.952 1051.93 107.532C1051.21 107.112 1050.65 106.518 1050.24 105.75C1049.83 104.982 1049.63 104.082 1049.63 103.05ZM1060.56 103.032C1060.56 102.024 1060.76 101.142 1061.17 100.386C1061.58 99.618 1062.14 99.024 1062.85 98.604C1063.57 98.184 1064.36 97.974 1065.24 97.974C1066.1 97.974 1066.85 98.16 1067.49 98.532C1068.13 98.904 1068.6 99.372 1068.91 99.936V98.136H1070.57V108H1068.91V106.164C1068.59 106.74 1068.1 107.22 1067.45 107.604C1066.82 107.976 1066.07 108.162 1065.22 108.162C1064.35 108.162 1063.55 107.946 1062.85 107.514C1062.14 107.082 1061.58 106.476 1061.17 105.696C1060.76 104.916 1060.56 104.028 1060.56 103.032ZM1068.91 103.05C1068.91 102.306 1068.76 101.658 1068.46 101.106C1068.16 100.554 1067.75 100.134 1067.24 99.846C1066.73 99.546 1066.18 99.396 1065.56 99.396C1064.95 99.396 1064.39 99.54 1063.89 99.828C1063.39 100.116 1062.98 100.536 1062.68 101.088C1062.38 101.64 1062.23 102.288 1062.23 103.032C1062.23 103.788 1062.38 104.448 1062.68 105.012C1062.98 105.564 1063.39 105.99 1063.89 106.29C1064.39 106.578 1064.95 106.722 1065.56 106.722C1066.18 106.722 1066.73 106.578 1067.24 106.29C1067.75 105.99 1068.16 105.564 1068.46 105.012C1068.76 104.448 1068.91 103.794 1068.91 103.05ZM1074.97 99.738C1075.26 99.174 1075.67 98.736 1076.2 98.424C1076.74 98.112 1077.39 97.956 1078.16 97.956V99.648H1077.73C1075.89 99.648 1074.97 100.644 1074.97 102.636V108H1073.34V98.136H1074.97V99.738ZM1088.34 108.162C1087.58 108.162 1086.91 108.036 1086.31 107.784C1085.71 107.52 1085.23 107.16 1084.88 106.704C1084.54 106.236 1084.34 105.702 1084.31 105.102H1086C1086.05 105.594 1086.28 105.996 1086.68 106.308C1087.1 106.62 1087.65 106.776 1088.32 106.776C1088.95 106.776 1089.44 106.638 1089.8 106.362C1090.16 106.086 1090.34 105.738 1090.34 105.318C1090.34 104.886 1090.15 104.568 1089.76 104.364C1089.38 104.148 1088.78 103.938 1087.98 103.734C1087.25 103.542 1086.65 103.35 1086.18 103.158C1085.72 102.954 1085.33 102.66 1084.99 102.276C1084.67 101.88 1084.51 101.364 1084.51 100.728C1084.51 100.224 1084.66 99.762 1084.96 99.342C1085.26 98.922 1085.68 98.592 1086.23 98.352C1086.79 98.1 1087.42 97.974 1088.12 97.974C1089.22 97.974 1090.1 98.25 1090.77 98.802C1091.44 99.354 1091.8 100.11 1091.85 101.07H1090.21C1090.18 100.554 1089.97 100.14 1089.58 99.828C1089.21 99.516 1088.71 99.36 1088.07 99.36C1087.48 99.36 1087.01 99.486 1086.67 99.738C1086.32 99.99 1086.14 100.32 1086.14 100.728C1086.14 101.052 1086.25 101.322 1086.45 101.538C1086.67 101.742 1086.93 101.91 1087.24 102.042C1087.57 102.162 1088.01 102.3 1088.57 102.456C1089.28 102.648 1089.86 102.84 1090.3 103.032C1090.75 103.212 1091.12 103.488 1091.44 103.86C1091.76 104.232 1091.93 104.718 1091.94 105.318C1091.94 105.858 1091.79 106.344 1091.49 106.776C1091.19 107.208 1090.76 107.55 1090.21 107.802C1089.67 108.042 1089.05 108.162 1088.34 108.162ZM1103.25 102.69C1103.25 103.002 1103.24 103.332 1103.2 103.68H1095.32C1095.38 104.652 1095.71 105.414 1096.31 105.966C1096.92 106.506 1097.66 106.776 1098.52 106.776C1099.23 106.776 1099.82 106.614 1100.28 106.29C1100.76 105.954 1101.1 105.51 1101.29 104.958H1103.06C1102.79 105.906 1102.26 106.68 1101.47 107.28C1100.68 107.868 1099.7 108.162 1098.52 108.162C1097.58 108.162 1096.74 107.952 1096 107.532C1095.27 107.112 1094.69 106.518 1094.27 105.75C1093.85 104.97 1093.64 104.07 1093.64 103.05C1093.64 102.03 1093.85 101.136 1094.25 100.368C1094.66 99.6 1095.23 99.012 1095.96 98.604C1096.71 98.184 1097.56 97.974 1098.52 97.974C1099.46 97.974 1100.28 98.178 1101 98.586C1101.72 98.994 1102.28 99.558 1102.66 100.278C1103.06 100.986 1103.25 101.79 1103.25 102.69ZM1101.56 102.348C1101.56 101.724 1101.42 101.19 1101.15 100.746C1100.87 100.29 1100.49 99.948 1100.01 99.72C1099.55 99.48 1099.02 99.36 1098.45 99.36C1097.62 99.36 1096.91 99.624 1096.32 100.152C1095.75 100.68 1095.42 101.412 1095.33 102.348H1101.56ZM1107.05 99.738C1107.34 99.174 1107.75 98.736 1108.28 98.424C1108.82 98.112 1109.47 97.956 1110.24 97.956V99.648H1109.81C1107.97 99.648 1107.05 100.644 1107.05 102.636V108H1105.42V98.136H1107.05V99.738ZM1115.8 106.488L1118.86 98.136H1120.61L1116.74 108H1114.83L1110.96 98.136H1112.72L1115.8 106.488ZM1123.07 96.534C1122.75 96.534 1122.49 96.426 1122.27 96.21C1122.06 95.994 1121.95 95.73 1121.95 95.418C1121.95 95.106 1122.06 94.842 1122.27 94.626C1122.49 94.41 1122.75 94.302 1123.07 94.302C1123.37 94.302 1123.62 94.41 1123.82 94.626C1124.04 94.842 1124.15 95.106 1124.15 95.418C1124.15 95.73 1124.04 95.994 1123.82 96.21C1123.62 96.426 1123.37 96.534 1123.07 96.534ZM1123.86 98.136V108H1122.22V98.136H1123.86ZM1126.04 103.05C1126.04 102.03 1126.24 101.142 1126.65 100.386C1127.06 99.618 1127.62 99.024 1128.34 98.604C1129.07 98.184 1129.91 97.974 1130.84 97.974C1132.06 97.974 1133.05 98.268 1133.83 98.856C1134.62 99.444 1135.15 100.26 1135.4 101.304H1133.63C1133.47 100.704 1133.14 100.23 1132.64 99.882C1132.16 99.534 1131.56 99.36 1130.84 99.36C1129.91 99.36 1129.15 99.684 1128.58 100.332C1128 100.968 1127.71 101.874 1127.71 103.05C1127.71 104.238 1128 105.156 1128.58 105.804C1129.15 106.452 1129.91 106.776 1130.84 106.776C1131.56 106.776 1132.16 106.608 1132.64 106.272C1133.12 105.936 1133.45 105.456 1133.63 104.832H1135.4C1135.13 105.84 1134.61 106.65 1133.81 107.262C1133.02 107.862 1132.03 108.162 1130.84 108.162C1129.91 108.162 1129.07 107.952 1128.34 107.532C1127.62 107.112 1127.06 106.518 1126.65 105.75C1126.24 104.982 1126.04 104.082 1126.04 103.05ZM1138.43 96.534C1138.12 96.534 1137.85 96.426 1137.64 96.21C1137.42 95.994 1137.31 95.73 1137.31 95.418C1137.31 95.106 1137.42 94.842 1137.64 94.626C1137.85 94.41 1138.12 94.302 1138.43 94.302C1138.73 94.302 1138.98 94.41 1139.19 94.626C1139.4 94.842 1139.51 95.106 1139.51 95.418C1139.51 95.73 1139.4 95.994 1139.19 96.21C1138.98 96.426 1138.73 96.534 1138.43 96.534ZM1139.22 98.136V108H1137.58V98.136H1139.22ZM1146.82 97.956C1148.02 97.956 1148.99 98.322 1149.73 99.054C1150.48 99.774 1150.85 100.818 1150.85 102.186V108H1149.23V102.42C1149.23 101.436 1148.98 100.686 1148.49 100.17C1148 99.642 1147.33 99.378 1146.48 99.378C1145.61 99.378 1144.92 99.648 1144.41 100.188C1143.9 100.728 1143.65 101.514 1143.65 102.546V108H1142.01V98.136H1143.65V99.54C1143.97 99.036 1144.41 98.646 1144.96 98.37C1145.53 98.094 1146.15 97.956 1146.82 97.956ZM1157.59 97.974C1158.45 97.974 1159.19 98.16 1159.83 98.532C1160.47 98.904 1160.95 99.372 1161.27 99.936V98.136H1162.92V108.216C1162.92 109.116 1162.73 109.914 1162.35 110.61C1161.96 111.318 1161.41 111.87 1160.69 112.266C1159.98 112.662 1159.15 112.86 1158.21 112.86C1156.91 112.86 1155.83 112.554 1154.97 111.942C1154.1 111.33 1153.59 110.496 1153.44 109.44H1155.06C1155.24 110.04 1155.61 110.52 1156.17 110.88C1156.74 111.252 1157.41 111.438 1158.21 111.438C1159.11 111.438 1159.84 111.156 1160.4 110.592C1160.98 110.028 1161.27 109.236 1161.27 108.216V106.146C1160.94 106.722 1160.46 107.202 1159.83 107.586C1159.19 107.97 1158.45 108.162 1157.59 108.162C1156.72 108.162 1155.92 107.946 1155.2 107.514C1154.49 107.082 1153.93 106.476 1153.53 105.696C1153.12 104.916 1152.91 104.028 1152.91 103.032C1152.91 102.024 1153.12 101.142 1153.53 100.386C1153.93 99.618 1154.49 99.024 1155.2 98.604C1155.92 98.184 1156.72 97.974 1157.59 97.974ZM1161.27 103.05C1161.27 102.306 1161.12 101.658 1160.82 101.106C1160.52 100.554 1160.11 100.134 1159.59 99.846C1159.09 99.546 1158.53 99.396 1157.92 99.396C1157.31 99.396 1156.75 99.54 1156.24 99.828C1155.74 100.116 1155.34 100.536 1155.04 101.088C1154.74 101.64 1154.59 102.288 1154.59 103.032C1154.59 103.788 1154.74 104.448 1155.04 105.012C1155.34 105.564 1155.74 105.99 1156.24 106.29C1156.75 106.578 1157.31 106.722 1157.92 106.722C1158.53 106.722 1159.09 106.578 1159.59 106.29C1160.11 105.99 1160.52 105.564 1160.82 105.012C1161.12 104.448 1161.27 103.794 1161.27 103.05Z" fill="#B7B7B7"/>
<path d="M45.486 55.722V52.86H50.472V66H47.268V55.722H45.486ZM57.0236 66.144C56.4836 66.144 56.0396 65.988 55.6916 65.676C55.3556 65.352 55.1876 64.956 55.1876 64.488C55.1876 64.008 55.3556 63.606 55.6916 63.282C56.0396 62.958 56.4836 62.796 57.0236 62.796C57.5516 62.796 57.9836 62.958 58.3196 63.282C58.6676 63.606 58.8416 64.008 58.8416 64.488C58.8416 64.956 58.6676 65.352 58.3196 65.676C57.9836 65.988 57.5516 66.144 57.0236 66.144ZM69.8077 66L67.1797 61.23H66.4417V66H63.3637V53.364H68.5297C69.5257 53.364 70.3717 53.538 71.0677 53.886C71.7757 54.234 72.3037 54.714 72.6517 55.326C72.9997 55.926 73.1737 56.598 73.1737 57.342C73.1737 58.182 72.9337 58.932 72.4537 59.592C71.9857 60.252 71.2897 60.72 70.3657 60.996L73.2817 66H69.8077ZM66.4417 59.052H68.3497C68.9137 59.052 69.3337 58.914 69.6097 58.638C69.8977 58.362 70.0417 57.972 70.0417 57.468C70.0417 56.988 69.8977 56.61 69.6097 56.334C69.3337 56.058 68.9137 55.92 68.3497 55.92H66.4417V59.052ZM80.8838 55.83V58.386H85.0058V60.762H80.8838V63.534H85.5458V66H77.8058V53.364H85.5458V55.83H80.8838ZM99.2441 68.16L97.6241 65.982C97.1441 66.078 96.6761 66.126 96.2201 66.126C95.0321 66.126 93.9401 65.85 92.9441 65.298C91.9601 64.746 91.1741 63.978 90.5861 62.994C90.0101 61.998 89.7221 60.882 89.7221 59.646C89.7221 58.41 90.0101 57.3 90.5861 56.316C91.1741 55.332 91.9601 54.564 92.9441 54.012C93.9401 53.46 95.0321 53.184 96.2201 53.184C97.4081 53.184 98.4941 53.46 99.4781 54.012C100.474 54.564 101.254 55.332 101.818 56.316C102.394 57.3 102.682 58.41 102.682 59.646C102.682 60.726 102.46 61.716 102.016 62.616C101.584 63.504 100.978 64.242 100.198 64.83L102.97 68.16H99.2441ZM92.8721 59.646C92.8721 60.762 93.1721 61.656 93.7721 62.328C94.3841 62.988 95.2001 63.318 96.2201 63.318C97.2281 63.318 98.0321 62.982 98.6321 62.31C99.2441 61.638 99.5501 60.75 99.5501 59.646C99.5501 58.53 99.2441 57.642 98.6321 56.982C98.0321 56.31 97.2281 55.974 96.2201 55.974C95.2001 55.974 94.3841 56.304 93.7721 56.964C93.1721 57.624 92.8721 58.518 92.8721 59.646ZM110.154 53.364V60.924C110.154 61.68 110.34 62.262 110.712 62.67C111.084 63.078 111.63 63.282 112.35 63.282C113.07 63.282 113.622 63.078 114.006 62.67C114.39 62.262 114.582 61.68 114.582 60.924V53.364H117.66V60.906C117.66 62.034 117.42 62.988 116.94 63.768C116.46 64.548 115.812 65.136 114.996 65.532C114.192 65.928 113.292 66.126 112.296 66.126C111.3 66.126 110.406 65.934 109.614 65.55C108.834 65.154 108.216 64.566 107.76 63.786C107.304 62.994 107.076 62.034 107.076 60.906V53.364H110.154ZM125.599 55.83V58.386H129.721V60.762H125.599V63.534H130.261V66H122.521V53.364H130.261V55.83H125.599ZM139.531 66.126C138.607 66.126 137.779 65.976 137.047 65.676C136.315 65.376 135.727 64.932 135.283 64.344C134.851 63.756 134.623 63.048 134.599 62.22H137.875C137.923 62.688 138.085 63.048 138.361 63.3C138.637 63.54 138.997 63.66 139.441 63.66C139.897 63.66 140.257 63.558 140.521 63.354C140.785 63.138 140.917 62.844 140.917 62.472C140.917 62.16 140.809 61.902 140.593 61.698C140.389 61.494 140.131 61.326 139.819 61.194C139.519 61.062 139.087 60.912 138.523 60.744C137.707 60.492 137.041 60.24 136.525 59.988C136.009 59.736 135.565 59.364 135.193 58.872C134.821 58.38 134.635 57.738 134.635 56.946C134.635 55.77 135.061 54.852 135.913 54.192C136.765 53.52 137.875 53.184 139.243 53.184C140.635 53.184 141.757 53.52 142.609 54.192C143.461 54.852 143.917 55.776 143.977 56.964H140.647C140.623 56.556 140.473 56.238 140.197 56.01C139.921 55.77 139.567 55.65 139.135 55.65C138.763 55.65 138.463 55.752 138.235 55.956C138.007 56.148 137.893 56.43 137.893 56.802C137.893 57.21 138.085 57.528 138.469 57.756C138.853 57.984 139.453 58.23 140.269 58.494C141.085 58.77 141.745 59.034 142.249 59.286C142.765 59.538 143.209 59.904 143.581 60.384C143.953 60.864 144.139 61.482 144.139 62.238C144.139 62.958 143.953 63.612 143.581 64.2C143.221 64.788 142.693 65.256 141.997 65.604C141.301 65.952 140.479 66.126 139.531 66.126ZM157.824 53.364V55.83H154.476V66H151.398V55.83H148.05V53.364H157.824ZM179.419 53.364L175.045 61.824V66H171.967V61.824L167.593 53.364H171.085L173.533 58.656L175.963 53.364H179.419ZM189.335 66.126C188.147 66.126 187.055 65.85 186.059 65.298C185.075 64.746 184.289 63.978 183.701 62.994C183.125 61.998 182.837 60.882 182.837 59.646C182.837 58.41 183.125 57.3 183.701 56.316C184.289 55.332 185.075 54.564 186.059 54.012C187.055 53.46 188.147 53.184 189.335 53.184C190.523 53.184 191.609 53.46 192.593 54.012C193.589 54.564 194.369 55.332 194.933 56.316C195.509 57.3 195.797 58.41 195.797 59.646C195.797 60.882 195.509 61.998 194.933 62.994C194.357 63.978 193.577 64.746 192.593 65.298C191.609 65.85 190.523 66.126 189.335 66.126ZM189.335 63.318C190.343 63.318 191.147 62.982 191.747 62.31C192.359 61.638 192.665 60.75 192.665 59.646C192.665 58.53 192.359 57.642 191.747 56.982C191.147 56.31 190.343 55.974 189.335 55.974C188.315 55.974 187.499 56.304 186.887 56.964C186.287 57.624 185.987 58.518 185.987 59.646C185.987 60.762 186.287 61.656 186.887 62.328C187.499 62.988 188.315 63.318 189.335 63.318ZM203.233 53.364V60.924C203.233 61.68 203.419 62.262 203.791 62.67C204.163 63.078 204.709 63.282 205.429 63.282C206.149 63.282 206.701 63.078 207.085 62.67C207.469 62.262 207.661 61.68 207.661 60.924V53.364H210.739V60.906C210.739 62.034 210.499 62.988 210.019 63.768C209.539 64.548 208.891 65.136 208.075 65.532C207.271 65.928 206.371 66.126 205.375 66.126C204.379 66.126 203.485 65.934 202.693 65.55C201.913 65.154 201.295 64.566 200.839 63.786C200.383 62.994 200.155 62.034 200.155 60.906V53.364H203.233ZM222.045 66L219.417 61.23H218.679V66H215.601V53.364H220.767C221.763 53.364 222.609 53.538 223.305 53.886C224.013 54.234 224.541 54.714 224.889 55.326C225.237 55.926 225.411 56.598 225.411 57.342C225.411 58.182 225.171 58.932 224.691 59.592C224.223 60.252 223.527 60.72 222.603 60.996L225.519 66H222.045ZM218.679 59.052H220.587C221.151 59.052 221.571 58.914 221.847 58.638C222.135 58.362 222.279 57.972 222.279 57.468C222.279 56.988 222.135 56.61 221.847 56.334C221.571 56.058 221.151 55.92 220.587 55.92H218.679V59.052ZM245.557 68.16L243.937 65.982C243.457 66.078 242.989 66.126 242.533 66.126C241.345 66.126 240.253 65.85 239.257 65.298C238.273 64.746 237.487 63.978 236.899 62.994C236.323 61.998 236.035 60.882 236.035 59.646C236.035 58.41 236.323 57.3 236.899 56.316C237.487 55.332 238.273 54.564 239.257 54.012C240.253 53.46 241.345 53.184 242.533 53.184C243.721 53.184 244.807 53.46 245.791 54.012C246.787 54.564 247.567 55.332 248.131 56.316C248.707 57.3 248.995 58.41 248.995 59.646C248.995 60.726 248.773 61.716 248.329 62.616C247.897 63.504 247.291 64.242 246.511 64.83L249.283 68.16H245.557ZM239.185 59.646C239.185 60.762 239.485 61.656 240.085 62.328C240.697 62.988 241.513 63.318 242.533 63.318C243.541 63.318 244.345 62.982 244.945 62.31C245.557 61.638 245.863 60.75 245.863 59.646C245.863 58.53 245.557 57.642 244.945 56.982C244.345 56.31 243.541 55.974 242.533 55.974C241.513 55.974 240.697 56.304 240.085 56.964C239.485 57.624 239.185 58.518 239.185 59.646ZM256.467 53.364V60.924C256.467 61.68 256.653 62.262 257.025 62.67C257.397 63.078 257.943 63.282 258.663 63.282C259.383 63.282 259.935 63.078 260.319 62.67C260.703 62.262 260.895 61.68 260.895 60.924V53.364H263.973V60.906C263.973 62.034 263.733 62.988 263.253 63.768C262.773 64.548 262.125 65.136 261.309 65.532C260.505 65.928 259.605 66.126 258.609 66.126C257.613 66.126 256.719 65.934 255.927 65.55C255.147 65.154 254.529 64.566 254.073 63.786C253.617 62.994 253.389 62.034 253.389 60.906V53.364H256.467ZM274.81 66.126C273.622 66.126 272.53 65.85 271.534 65.298C270.55 64.746 269.764 63.978 269.176 62.994C268.6 61.998 268.312 60.882 268.312 59.646C268.312 58.41 268.6 57.3 269.176 56.316C269.764 55.332 270.55 54.564 271.534 54.012C272.53 53.46 273.622 53.184 274.81 53.184C275.998 53.184 277.084 53.46 278.068 54.012C279.064 54.564 279.844 55.332 280.408 56.316C280.984 57.3 281.272 58.41 281.272 59.646C281.272 60.882 280.984 61.998 280.408 62.994C279.832 63.978 279.052 64.746 278.068 65.298C277.084 65.85 275.998 66.126 274.81 66.126ZM274.81 63.318C275.818 63.318 276.622 62.982 277.222 62.31C277.834 61.638 278.14 60.75 278.14 59.646C278.14 58.53 277.834 57.642 277.222 56.982C276.622 56.31 275.818 55.974 274.81 55.974C273.79 55.974 272.974 56.304 272.362 56.964C271.762 57.624 271.462 58.518 271.462 59.646C271.462 60.762 271.762 61.656 272.362 62.328C272.974 62.988 273.79 63.318 274.81 63.318ZM294.775 53.364V55.83H291.427V66H288.349V55.83H285.001V53.364H294.775ZM302.098 55.83V58.386H306.22V60.762H302.098V63.534H306.76V66H299.02V53.364H306.76V55.83H302.098Z" fill="black"/>
<path d="M457.81 59.25C457.81 57.186 458.206 55.56 458.998 54.372C459.802 53.184 461.092 52.59 462.868 52.59C464.644 52.59 465.928 53.184 466.72 54.372C467.524 55.56 467.926 57.186 467.926 59.25C467.926 61.338 467.524 62.976 466.72 64.164C465.928 65.352 464.644 65.946 462.868 65.946C461.092 65.946 459.802 65.352 458.998 64.164C458.206 62.976 457.81 61.338 457.81 59.25ZM464.902 59.25C464.902 58.038 464.77 57.108 464.506 56.46C464.242 55.8 463.696 55.47 462.868 55.47C462.04 55.47 461.494 55.8 461.23 56.46C460.966 57.108 460.834 58.038 460.834 59.25C460.834 60.066 460.882 60.744 460.978 61.284C461.074 61.812 461.266 62.244 461.554 62.58C461.854 62.904 462.292 63.066 462.868 63.066C463.444 63.066 463.876 62.904 464.164 62.58C464.464 62.244 464.662 61.812 464.758 61.284C464.854 60.744 464.902 60.066 464.902 59.25ZM472.144 63.534C472.552 63.21 472.738 63.06 472.702 63.084C473.878 62.112 474.802 61.314 475.474 60.69C476.158 60.066 476.734 59.412 477.202 58.728C477.67 58.044 477.904 57.378 477.904 56.73C477.904 56.238 477.79 55.854 477.562 55.578C477.334 55.302 476.992 55.164 476.536 55.164C476.08 55.164 475.72 55.338 475.456 55.686C475.204 56.022 475.078 56.502 475.078 57.126H472.108C472.132 56.106 472.348 55.254 472.756 54.57C473.176 53.886 473.722 53.382 474.394 53.058C475.078 52.734 475.834 52.572 476.662 52.572C478.09 52.572 479.164 52.938 479.884 53.67C480.616 54.402 480.982 55.356 480.982 56.532C480.982 57.816 480.544 59.01 479.668 60.114C478.792 61.206 477.676 62.274 476.32 63.318H481.18V65.82H472.144V63.534ZM486.981 66.144C486.441 66.144 485.997 65.988 485.649 65.676C485.313 65.352 485.145 64.956 485.145 64.488C485.145 64.008 485.313 63.606 485.649 63.282C485.997 62.958 486.441 62.796 486.981 62.796C487.509 62.796 487.941 62.958 488.277 63.282C488.625 63.606 488.799 64.008 488.799 64.488C488.799 64.956 488.625 65.352 488.277 65.676C487.941 65.988 487.509 66.144 486.981 66.144ZM507.486 59.52C508.218 59.676 508.806 60.042 509.25 60.618C509.694 61.182 509.916 61.83 509.916 62.562C509.916 63.618 509.544 64.458 508.8 65.082C508.068 65.694 507.042 66 505.722 66H499.836V53.364H505.524C506.808 53.364 507.81 53.658 508.53 54.246C509.262 54.834 509.628 55.632 509.628 56.64C509.628 57.384 509.43 58.002 509.034 58.494C508.65 58.986 508.134 59.328 507.486 59.52ZM502.914 58.476H504.93C505.434 58.476 505.818 58.368 506.082 58.152C506.358 57.924 506.496 57.594 506.496 57.162C506.496 56.73 506.358 56.4 506.082 56.172C505.818 55.944 505.434 55.83 504.93 55.83H502.914V58.476ZM505.182 63.516C505.698 63.516 506.094 63.402 506.37 63.174C506.658 62.934 506.802 62.592 506.802 62.148C506.802 61.704 506.652 61.356 506.352 61.104C506.064 60.852 505.662 60.726 505.146 60.726H502.914V63.516H505.182ZM520.845 66L518.217 61.23H517.479V66H514.401V53.364H519.567C520.563 53.364 521.409 53.538 522.105 53.886C522.813 54.234 523.341 54.714 523.689 55.326C524.037 55.926 524.211 56.598 524.211 57.342C524.211 58.182 523.971 58.932 523.491 59.592C523.023 60.252 522.327 60.72 521.403 60.996L524.319 66H520.845ZM517.479 59.052H519.387C519.951 59.052 520.371 58.914 520.647 58.638C520.935 58.362 521.079 57.972 521.079 57.468C521.079 56.988 520.935 56.61 520.647 56.334C520.371 56.058 519.951 55.92 519.387 55.92H517.479V59.052ZM531.921 53.364V66H528.843V53.364H531.921ZM548.156 66H545.078L539.93 58.206V66H536.852V53.364H539.93L545.078 61.194V53.364H548.156V66ZM561.475 57.36C561.247 56.94 560.917 56.622 560.485 56.406C560.065 56.178 559.567 56.064 558.991 56.064C557.995 56.064 557.197 56.394 556.597 57.054C555.997 57.702 555.697 58.572 555.697 59.664C555.697 60.828 556.009 61.74 556.633 62.4C557.269 63.048 558.139 63.372 559.243 63.372C559.999 63.372 560.635 63.18 561.151 62.796C561.679 62.412 562.063 61.86 562.303 61.14H558.397V58.872H565.093V61.734C564.865 62.502 564.475 63.216 563.923 63.876C563.383 64.536 562.693 65.07 561.853 65.478C561.013 65.886 560.065 66.09 559.009 66.09C557.761 66.09 556.645 65.82 555.661 65.28C554.689 64.728 553.927 63.966 553.375 62.994C552.835 62.022 552.565 60.912 552.565 59.664C552.565 58.416 552.835 57.306 553.375 56.334C553.927 55.35 554.689 54.588 555.661 54.048C556.633 53.496 557.743 53.22 558.991 53.22C560.503 53.22 561.775 53.586 562.807 54.318C563.851 55.05 564.541 56.064 564.877 57.36H561.475ZM586.848 53.364L582.474 61.824V66H579.396V61.824L575.022 53.364H578.514L580.962 58.656L583.392 53.364H586.848ZM596.765 66.126C595.577 66.126 594.485 65.85 593.489 65.298C592.505 64.746 591.719 63.978 591.131 62.994C590.555 61.998 590.267 60.882 590.267 59.646C590.267 58.41 590.555 57.3 591.131 56.316C591.719 55.332 592.505 54.564 593.489 54.012C594.485 53.46 595.577 53.184 596.765 53.184C597.953 53.184 599.039 53.46 600.023 54.012C601.019 54.564 601.799 55.332 602.363 56.316C602.939 57.3 603.227 58.41 603.227 59.646C603.227 60.882 602.939 61.998 602.363 62.994C601.787 63.978 601.007 64.746 600.023 65.298C599.039 65.85 597.953 66.126 596.765 66.126ZM596.765 63.318C597.773 63.318 598.577 62.982 599.177 62.31C599.789 61.638 600.095 60.75 600.095 59.646C600.095 58.53 599.789 57.642 599.177 56.982C598.577 56.31 597.773 55.974 596.765 55.974C595.745 55.974 594.929 56.304 594.317 56.964C593.717 57.624 593.417 58.518 593.417 59.646C593.417 60.762 593.717 61.656 594.317 62.328C594.929 62.988 595.745 63.318 596.765 63.318ZM610.663 53.364V60.924C610.663 61.68 610.849 62.262 611.221 62.67C611.593 63.078 612.139 63.282 612.859 63.282C613.579 63.282 614.131 63.078 614.515 62.67C614.899 62.262 615.091 61.68 615.091 60.924V53.364H618.169V60.906C618.169 62.034 617.929 62.988 617.449 63.768C616.969 64.548 616.321 65.136 615.505 65.532C614.701 65.928 613.801 66.126 612.805 66.126C611.809 66.126 610.915 65.934 610.123 65.55C609.343 65.154 608.725 64.566 608.269 63.786C607.813 62.994 607.585 62.034 607.585 60.906V53.364H610.663ZM629.474 66L626.846 61.23H626.108V66H623.03V53.364H628.196C629.192 53.364 630.038 53.538 630.734 53.886C631.442 54.234 631.97 54.714 632.318 55.326C632.666 55.926 632.84 56.598 632.84 57.342C632.84 58.182 632.6 58.932 632.12 59.592C631.652 60.252 630.956 60.72 630.032 60.996L632.948 66H629.474ZM626.108 59.052H628.016C628.58 59.052 629 58.914 629.276 58.638C629.564 58.362 629.708 57.972 629.708 57.468C629.708 56.988 629.564 56.61 629.276 56.334C629 56.058 628.58 55.92 628.016 55.92H626.108V59.052ZM655.849 53.364L651.367 66H647.515L643.033 53.364H646.309L649.441 62.904L652.591 53.364H655.849ZM662.914 55.83V58.386H667.036V60.762H662.914V63.534H667.576V66H659.836V53.364H667.576V55.83H662.914ZM683.218 53.364V66H680.14V60.798H675.352V66H672.274V53.364H675.352V58.314H680.14V53.364H683.218ZM691.218 53.364V66H688.14V53.364H691.218ZM695.626 59.664C695.626 58.416 695.896 57.306 696.436 56.334C696.976 55.35 697.726 54.588 698.686 54.048C699.658 53.496 700.756 53.22 701.98 53.22C703.48 53.22 704.764 53.616 705.832 54.408C706.9 55.2 707.614 56.28 707.974 57.648H704.59C704.338 57.12 703.978 56.718 703.51 56.442C703.054 56.166 702.532 56.028 701.944 56.028C700.996 56.028 700.228 56.358 699.64 57.018C699.052 57.678 698.758 58.56 698.758 59.664C698.758 60.768 699.052 61.65 699.64 62.31C700.228 62.97 700.996 63.3 701.944 63.3C702.532 63.3 703.054 63.162 703.51 62.886C703.978 62.61 704.338 62.208 704.59 61.68H707.974C707.614 63.048 706.9 64.128 705.832 64.92C704.764 65.7 703.48 66.09 701.98 66.09C700.756 66.09 699.658 65.82 698.686 65.28C697.726 64.728 696.976 63.966 696.436 62.994C695.896 62.022 695.626 60.912 695.626 59.664ZM715.637 63.624H719.669V66H712.559V53.364H715.637V63.624ZM726.915 55.83V58.386H731.037V60.762H726.915V63.534H731.577V66H723.837V53.364H731.577V55.83H726.915Z" fill="black"/>
<path d="M855.81 59.25C855.81 57.186 856.206 55.56 856.998 54.372C857.802 53.184 859.092 52.59 860.868 52.59C862.644 52.59 863.928 53.184 864.72 54.372C865.524 55.56 865.926 57.186 865.926 59.25C865.926 61.338 865.524 62.976 864.72 64.164C863.928 65.352 862.644 65.946 860.868 65.946C859.092 65.946 857.802 65.352 856.998 64.164C856.206 62.976 855.81 61.338 855.81 59.25ZM862.902 59.25C862.902 58.038 862.77 57.108 862.506 56.46C862.242 55.8 861.696 55.47 860.868 55.47C860.04 55.47 859.494 55.8 859.23 56.46C858.966 57.108 858.834 58.038 858.834 59.25C858.834 60.066 858.882 60.744 858.978 61.284C859.074 61.812 859.266 62.244 859.554 62.58C859.854 62.904 860.292 63.066 860.868 63.066C861.444 63.066 861.876 62.904 862.164 62.58C862.464 62.244 862.662 61.812 862.758 61.284C862.854 60.744 862.902 60.066 862.902 59.25ZM870.36 56.568C870.408 55.284 870.828 54.294 871.62 53.598C872.412 52.902 873.486 52.554 874.842 52.554C875.742 52.554 876.51 52.71 877.146 53.022C877.794 53.334 878.28 53.76 878.604 54.3C878.94 54.84 879.108 55.446 879.108 56.118C879.108 56.91 878.91 57.558 878.514 58.062C878.118 58.554 877.656 58.89 877.128 59.07V59.142C877.812 59.37 878.352 59.748 878.748 60.276C879.144 60.804 879.342 61.482 879.342 62.31C879.342 63.054 879.168 63.714 878.82 64.29C878.484 64.854 877.986 65.298 877.326 65.622C876.678 65.946 875.904 66.108 875.004 66.108C873.564 66.108 872.412 65.754 871.548 65.046C870.696 64.338 870.246 63.27 870.198 61.842H873.186C873.198 62.37 873.348 62.79 873.636 63.102C873.924 63.402 874.344 63.552 874.896 63.552C875.364 63.552 875.724 63.42 875.976 63.156C876.24 62.88 876.372 62.52 876.372 62.076C876.372 61.5 876.186 61.086 875.814 60.834C875.454 60.57 874.872 60.438 874.068 60.438H873.492V57.936H874.068C874.68 57.936 875.172 57.834 875.544 57.63C875.928 57.414 876.12 57.036 876.12 56.496C876.12 56.064 876 55.728 875.76 55.488C875.52 55.248 875.19 55.128 874.77 55.128C874.314 55.128 873.972 55.266 873.744 55.542C873.528 55.818 873.402 56.16 873.366 56.568H870.36ZM885.597 66.144C885.057 66.144 884.613 65.988 884.265 65.676C883.929 65.352 883.761 64.956 883.761 64.488C883.761 64.008 883.929 63.606 884.265 63.282C884.613 62.958 885.057 62.796 885.597 62.796C886.125 62.796 886.557 62.958 886.893 63.282C887.241 63.606 887.415 64.008 887.415 64.488C887.415 64.956 887.241 65.352 886.893 65.676C886.557 65.988 886.125 66.144 885.597 66.144ZM906.839 57.36C906.611 56.94 906.281 56.622 905.849 56.406C905.429 56.178 904.931 56.064 904.355 56.064C903.359 56.064 902.561 56.394 901.961 57.054C901.361 57.702 901.061 58.572 901.061 59.664C901.061 60.828 901.373 61.74 901.997 62.4C902.633 63.048 903.503 63.372 904.607 63.372C905.363 63.372 905.999 63.18 906.515 62.796C907.043 62.412 907.427 61.86 907.667 61.14H903.761V58.872H910.457V61.734C910.229 62.502 909.839 63.216 909.287 63.876C908.747 64.536 908.057 65.07 907.217 65.478C906.377 65.886 905.429 66.09 904.373 66.09C903.125 66.09 902.009 65.82 901.025 65.28C900.053 64.728 899.291 63.966 898.739 62.994C898.199 62.022 897.929 60.912 897.929 59.664C897.929 58.416 898.199 57.306 898.739 56.334C899.291 55.35 900.053 54.588 901.025 54.048C901.997 53.496 903.107 53.22 904.355 53.22C905.867 53.22 907.139 53.586 908.171 54.318C909.215 55.05 909.905 56.064 910.241 57.36H906.839ZM917.94 55.83V58.386H922.062V60.762H917.94V63.534H922.602V66H914.862V53.364H922.602V55.83H917.94ZM936.39 53.364V55.83H933.042V66H929.964V55.83H926.616V53.364H936.39ZM950.228 53.364V66H947.15V53.364H950.228ZM964.248 53.364V55.83H960.9V66H957.822V55.83H954.474V53.364H964.248ZM981.451 66L978.823 61.23H978.085V66H975.007V53.364H980.173C981.169 53.364 982.015 53.538 982.711 53.886C983.419 54.234 983.947 54.714 984.295 55.326C984.643 55.926 984.817 56.598 984.817 57.342C984.817 58.182 984.577 58.932 984.097 59.592C983.629 60.252 982.933 60.72 982.009 60.996L984.925 66H981.451ZM978.085 59.052H979.993C980.557 59.052 980.977 58.914 981.253 58.638C981.541 58.362 981.685 57.972 981.685 57.468C981.685 56.988 981.541 56.61 981.253 56.334C980.977 56.058 980.557 55.92 979.993 55.92H978.085V59.052ZM992.528 55.83V58.386H996.65V60.762H992.528V63.534H997.19V66H989.45V53.364H997.19V55.83H992.528ZM1011.52 57.432C1011.52 58.164 1011.35 58.836 1011.01 59.448C1010.68 60.048 1010.16 60.534 1009.47 60.906C1008.77 61.278 1007.91 61.464 1006.87 61.464H1004.97V66H1001.89V53.364H1006.87C1007.88 53.364 1008.73 53.538 1009.43 53.886C1010.13 54.234 1010.65 54.714 1011 55.326C1011.34 55.938 1011.52 56.64 1011.52 57.432ZM1006.64 59.016C1007.23 59.016 1007.67 58.878 1007.95 58.602C1008.24 58.326 1008.39 57.936 1008.39 57.432C1008.39 56.928 1008.24 56.538 1007.95 56.262C1007.67 55.986 1007.23 55.848 1006.64 55.848H1004.97V59.016H1006.64ZM1023.69 63.768H1018.97L1018.21 66H1014.99L1019.56 53.364H1023.13L1027.7 66H1024.44L1023.69 63.768ZM1022.89 61.392L1021.33 56.766L1019.78 61.392H1022.89ZM1034.87 53.364V66H1031.79V53.364H1034.87ZM1046.24 66L1043.62 61.23H1042.88V66H1039.8V53.364H1044.97C1045.96 53.364 1046.81 53.538 1047.5 53.886C1048.21 54.234 1048.74 54.714 1049.09 55.326C1049.44 55.926 1049.61 56.598 1049.61 57.342C1049.61 58.182 1049.37 58.932 1048.89 59.592C1048.42 60.252 1047.73 60.72 1046.8 60.996L1049.72 66H1046.24ZM1042.88 59.052H1044.79C1045.35 59.052 1045.77 58.914 1046.05 58.638C1046.33 58.362 1046.48 57.972 1046.48 57.468C1046.48 56.988 1046.33 56.61 1046.05 56.334C1045.77 56.058 1045.35 55.92 1044.79 55.92H1042.88V59.052ZM1057.32 55.83V58.386H1061.44V60.762H1057.32V63.534H1061.98V66H1054.24V53.364H1061.98V55.83H1057.32ZM1071.41 53.364C1072.75 53.364 1073.91 53.628 1074.91 54.156C1075.9 54.684 1076.67 55.428 1077.21 56.388C1077.76 57.336 1078.04 58.434 1078.04 59.682C1078.04 60.918 1077.76 62.016 1077.21 62.976C1076.67 63.936 1075.9 64.68 1074.89 65.208C1073.89 65.736 1072.73 66 1071.41 66H1066.68V53.364H1071.41ZM1071.22 63.336C1072.38 63.336 1073.29 63.018 1073.93 62.382C1074.58 61.746 1074.91 60.846 1074.91 59.682C1074.91 58.518 1074.58 57.612 1073.93 56.964C1073.29 56.316 1072.38 55.992 1071.22 55.992H1069.76V63.336H1071.22Z" fill="black"/>
<defs>
<filter id="filter0_d_8_724" x="0" y="0" width="416" height="180" filterUnits="userSpaceOnUse" color-interpolation-filters="sRGB">
<feFlood flood-opacity="0" result="BackgroundImageFix"/>
<feColorMatrix in="SourceAlpha" type="matrix" values="0 0 0 0 0 0 0 0 0 0 0 0 0 0 0 0 0 0 127 0" result="hardAlpha"/>
<feOffset/>
<feGaussianBlur stdDeviation="7.5"/>
<feComposite in2="hardAlpha" operator="out"/>
<feColorMatrix type="matrix" values="0 0 0 0 0 0 0 0 0 0 0 0 0 0 0 0 0 0 0.25 0"/>
<feBlend mode="normal" in2="BackgroundImageFix" result="effect1_dropShadow_8_724"/>
<feBlend mode="normal" in="SourceGraphic" in2="effect1_dropShadow_8_724" result="shape"/>
</filter>
<filter id="filter1_d_8_724" x="405" y="0" width="416" height="180" filterUnits="userSpaceOnUse" color-interpolation-filters="sRGB">
<feFlood flood-opacity="0" result="BackgroundImageFix"/>
<feColorMatrix in="SourceAlpha" type="matrix" values="0 0 0 0 0 0 0 0 0 0 0 0 0 0 0 0 0 0 127 0" result="hardAlpha"/>
<feOffset/>
<feGaussianBlur stdDeviation="7.5"/>
<feComposite in2="hardAlpha" operator="out"/>
<feColorMatrix type="matrix" values="0 0 0 0 0 0 0 0 0 0 0 0 0 0 0 0 0 0 0.25 0"/>
<feBlend mode="normal" in2="BackgroundImageFix" result="effect1_dropShadow_8_724"/>
<feBlend mode="normal" in="SourceGraphic" in2="effect1_dropShadow_8_724" result="shape"/>
</filter>
<filter id="filter2_d_8_724" x="813" y="0" width="416" height="180" filterUnits="userSpaceOnUse" color-interpolation-filters="sRGB">
<feFlood flood-opacity="0" result="BackgroundImageFix"/>
<feColorMatrix in="SourceAlpha" type="matrix" values="0 0 0 0 0 0 0 0 0 0 0 0 0 0 0 0 0 0 127 0" result="hardAlpha"/>
<feOffset/>
<feGaussianBlur stdDeviation="7.5"/>
<feComposite in2="hardAlpha" operator="out"/>
<feColorMatrix type="matrix" values="0 0 0 0 0 0 0 0 0 0 0 0 0 0 0 0 0 0 0.25 0"/>
<feBlend mode="normal" in2="BackgroundImageFix" result="effect1_dropShadow_8_724"/>
<feBlend mode="normal" in="SourceGraphic" in2="effect1_dropShadow_8_724" result="shape"/>
</filter>
</defs>
</svg>
